<?xml version="1.0" encoding="UTF-8" standalone="no"?>
<!DOCTYPE svg PUBLIC "-//W3C//DTD SVG 1.1//EN" "http://www.w3.org/Graphics/SVG/1.1/DTD/svg11.dtd">
<svg width="100%" height="100%" viewBox="0 0 150 150" version="1.1" xmlns="http://www.w3.org/2000/svg" xmlns:xlink="http://www.w3.org/1999/xlink" xml:space="preserve" xmlns:serif="http://www.serif.com/" style="fill-rule:evenodd;clip-rule:evenodd;stroke-linejoin:round;stroke-miterlimit:2;">
    <rect x="0" y="0" width="150" height="150" style="fill:rgb(241,241,241);"/>
    <g transform="matrix(4.91809,0,0,12.3721,8.60584,-5.60442)">
        <path d="M4.875,8L4.012,8C2.902,8 2,7.642 2,7.2L2,4.8C2,4.358 2.902,4 4.012,4L22.988,4C24.098,4 25,4.358 25,4.8L25,7.2C25,7.642 24.098,8 22.988,8L22.125,8L22.125,8.857L19.969,8.857L19.969,9.429C19.969,9.744 19.325,10 18.531,10L8.469,10C7.675,10 7.031,9.744 7.031,9.429L7.031,8.857L4.875,8.857L4.875,8ZM22.484,5.714C21.889,5.714 21.406,5.906 21.406,6.143C21.406,6.379 21.889,6.571 22.484,6.571C23.079,6.571 23.562,6.379 23.562,6.143C23.562,5.906 23.079,5.714 22.484,5.714ZM18.531,8.857C18.531,8.699 18.21,8.571 17.812,8.571L9.187,8.571C8.791,8.571 8.469,8.699 8.469,8.857C8.469,9.015 8.791,9.143 9.187,9.143L17.812,9.143C18.21,9.143 18.531,9.015 18.531,8.857Z" style="fill:rgb(192,192,192);"/>
    </g>
</svg>
