<?xml version="1.0" encoding="UTF-8" standalone="no"?>
<!DOCTYPE svg PUBLIC "-//W3C//DTD SVG 1.1//EN" "http://www.w3.org/Graphics/SVG/1.1/DTD/svg11.dtd">
<svg width="100%" height="100%" viewBox="0 0 150 150" version="1.1" xmlns="http://www.w3.org/2000/svg" xmlns:xlink="http://www.w3.org/1999/xlink" xml:space="preserve" xmlns:serif="http://www.serif.com/" style="fill-rule:evenodd;clip-rule:evenodd;stroke-linejoin:round;stroke-miterlimit:2;">
    <rect x="0" y="0" width="150" height="150" style="fill:rgb(241,241,241);"/>
    <g transform="matrix(1.52683,0,0,0.684125,-16.61,43.1882)">
        <path d="M97,36.913L97,56.087C97,64.318 94.006,71 90.318,71L29.682,71C25.994,71 23,64.318 23,56.087L23,36.913C23,28.682 25.994,22 29.682,22L90.318,22C94.006,22 97,28.682 97,36.913ZM88.818,30.421L31.182,30.421L31.182,47.962L88.818,47.962L88.818,30.421ZM85.731,52.065C84.027,52.065 82.644,55.152 82.644,58.955C82.644,62.757 84.027,65.844 85.731,65.844C87.435,65.844 88.818,62.757 88.818,58.955C88.818,55.152 87.435,52.065 85.731,52.065Z" style="fill:rgb(192,192,192);"/>
    </g>
</svg>
