<?xml version="1.0" encoding="UTF-8" standalone="no"?>
<!DOCTYPE svg PUBLIC "-//W3C//DTD SVG 1.1//EN" "http://www.w3.org/Graphics/SVG/1.1/DTD/svg11.dtd">
<svg width="100%" height="100%" viewBox="0 0 25 18" version="1.1" xmlns="http://www.w3.org/2000/svg" xmlns:xlink="http://www.w3.org/1999/xlink" xml:space="preserve" xmlns:serif="http://www.serif.com/" style="fill-rule:evenodd;clip-rule:evenodd;stroke-linejoin:round;stroke-miterlimit:2;">
    <g transform="matrix(1.34033,0,0,1.91301,-1.22035,-5.08818)">
        <rect x="0.91" y="2.66" width="18.652" height="9.409" style="fill:white;"/>
    </g>
    <g transform="matrix(0.694444,0,0,0.692308,0,-3.46154)">
        <g transform="matrix(2.30138,0,0,2.47738,-24.4622,-13.603)">
            <rect x="18.452" y="12.353" width="1.215" height="0.807" style="fill:rgb(179,29,49);"/>
        </g>
        <path d="M12.464,23L0,23L0,21L15.232,21L12.464,23ZM23.536,15L18,15L18,13L26.304,13L23.536,15ZM29.072,11L18,11L18,9L31.839,9L29.072,11ZM34.607,7L18,7L18,5L36,5L36,5.994L34.607,7ZM1.393,31L0,31L0,29L4.161,29L1.393,31ZM6.929,27L0,27L0,25L9.696,25L6.929,27Z" style="fill:rgb(179,29,49);"/>
        <g transform="matrix(5.65684,0,0,4.33553,-24.8595,-23.3672)">
            <rect x="4.395" y="6.543" width="3.182" height="3.229" style="fill:rgb(57,56,110);"/>
        </g>
        <path d="M2.001,7.726L2.619,8.175L2.383,8.9L3,8.452L3.618,8.9L3.382,8.175L4,7.726L3.236,7.726L3,7L2.765,7.726L2.001,7.726ZM4.001,9.726L4.619,10.175L4.383,10.9L5,10.452L5.618,10.9L5.382,10.175L6,9.726L5.236,9.726L5,9L4.765,9.726L4.001,9.726ZM8.001,9.726L8.619,10.175L8.383,10.9L9,10.452L9.618,10.9L9.382,10.175L10,9.726L9.236,9.726L9,9L8.765,9.726L8.001,9.726ZM12.001,9.726L12.619,10.175L12.383,10.9L13,10.452L13.618,10.9L13.382,10.175L14,9.726L13.236,9.726L13,9L12.765,9.726L12.001,9.726ZM4.001,13.726L4.619,14.175L4.383,14.9L5,14.452L5.618,14.9L5.382,14.175L6,13.726L5.236,13.726L5,13L4.765,13.726L4.001,13.726ZM8.001,13.726L8.619,14.175L8.383,14.9L9,14.452L9.618,14.9L9.382,14.175L10,13.726L9.236,13.726L9,13L8.765,13.726L8.001,13.726ZM12.001,13.726L12.619,14.175L12.383,14.9L13,14.452L13.618,14.9L13.382,14.175L14,13.726L13.236,13.726L13,13L12.765,13.726L12.001,13.726ZM6.001,7.726L6.619,8.175L6.383,8.9L7,8.452L7.618,8.9L7.382,8.175L8,7.726L7.236,7.726L7,7L6.765,7.726L6.001,7.726ZM10.001,7.726L10.619,8.175L10.383,8.9L11,8.452L11.618,8.9L11.382,8.175L12,7.726L11.236,7.726L11,7L10.765,7.726L10.001,7.726ZM14.001,7.726L14.619,8.175L14.383,8.9L15,8.452L15.618,8.9L15.382,8.175L16,7.726L15.236,7.726L15,7L14.765,7.726L14.001,7.726ZM2.001,11.726L2.619,12.175L2.383,12.9L3,12.452L3.618,12.9L3.382,12.175L4,11.726L3.236,11.726L3,11L2.765,11.726L2.001,11.726ZM6.383,12.9L7,12.452L7.618,12.9L7.382,12.175L8,11.726L7.236,11.726L7,11L6.765,11.726L6.001,11.726L6.619,12.175L6.383,12.9ZM10.001,11.726L10.619,12.175L10.383,12.9L11,12.452L11.618,12.9L11.382,12.175L12,11.726L11.236,11.726L11,11L10.765,11.726L10.001,11.726ZM14.001,11.726L14.619,12.175L14.383,12.9L15,12.452L15.618,12.9L15.382,12.175L16,11.726L15.236,11.726L15,11L14.765,11.726L14.001,11.726ZM2.001,15.726L2.619,16.175L2.383,16.9L3,16.452L3.618,16.9L3.382,16.175L4,15.726L3.236,15.726L3,15L2.765,15.726L2.001,15.726ZM6.383,16.9L7,16.452L7.618,16.9L7.382,16.175L8,15.726L7.236,15.726L7,15L6.765,15.726L6.001,15.726L6.619,16.175L6.383,16.9ZM10.001,15.726L10.619,16.175L10.383,16.9L11,16.452L11.618,16.9L11.382,16.175L12,15.726L11.236,15.726L11,15L10.765,15.726L10.001,15.726ZM14.001,15.726L14.619,16.175L14.383,16.9L15,16.452L15.618,16.9L15.382,16.175L16,15.726L15.236,15.726L15,15L14.765,15.726L14.001,15.726Z" style="fill:white;fill-rule:nonzero;"/>
    </g>
    <g transform="matrix(0.694444,0,0,0.692308,0,-3.46154)">
        <path d="M4.664,31L13,25.163L13,31L4.664,31ZM23,25.164L31.335,31L23,31L23,25.164ZM36,26.942L30.369,23L36,23L36,26.942ZM36,13L30.371,13L36,9.059L36,13Z" style="fill:rgb(0,27,105);"/>
        <path d="M23.536,15L36,15L36,21L21,21L21,31L15,31L15,21.168L23.536,15Z" style="fill:rgb(201,8,42);"/>
        <path d="M12.464,23L13,23L13,23.943L2.922,31L1.393,31L12.464,23ZM36,30.605L25.14,23L28.627,23L36,28.163L36,30.605Z" style="fill:rgb(201,8,42);"/>
    </g>
</svg>
