<?xml version="1.0" encoding="UTF-8" standalone="no"?>
<!DOCTYPE svg PUBLIC "-//W3C//DTD SVG 1.1//EN" "http://www.w3.org/Graphics/SVG/1.1/DTD/svg11.dtd">
<svg width="100%" height="100%" viewBox="0 0 150 150" version="1.1" xmlns="http://www.w3.org/2000/svg" xmlns:xlink="http://www.w3.org/1999/xlink" xml:space="preserve" xmlns:serif="http://www.serif.com/" style="fill-rule:evenodd;clip-rule:evenodd;stroke-linejoin:round;stroke-miterlimit:2;">
    <rect x="0" y="0" width="150" height="150" style="fill:rgb(241,241,241);"/>
    <g transform="matrix(3.15966,0,0,3.15966,18.205,12.7325)">
        <path d="M9.394,27.714L4.878,31.685C4.375,32.105 3.755,32.363 3.075,32.363C1.418,32.363 0.075,30.885 0.075,29.061C0.075,27.798 1.475,16.218 1.475,15.551C1.475,10.86 5.284,7.051 9.975,7.051L25.975,7.051C30.666,7.051 34.475,10.86 34.475,15.551C34.475,16.218 35.875,27.798 35.875,29.061C35.875,30.885 34.532,32.363 32.875,32.363C32.195,32.363 31.575,32.105 31.072,31.685L26.556,27.714C25.855,28.089 25.054,28.301 24.205,28.301C21.655,28.301 19.548,26.388 19.243,23.921L16.707,23.921C16.402,26.388 14.295,28.301 11.745,28.301C10.896,28.301 10.095,28.089 9.394,27.714ZM22.498,12.767C21.613,12.767 20.895,13.485 20.895,14.37C20.895,15.255 21.613,15.973 22.498,15.973C23.383,15.973 24.101,15.255 24.101,14.37C24.101,13.485 23.383,12.767 22.498,12.767ZM28.972,12.767C28.087,12.767 27.369,13.485 27.369,14.37C27.369,15.255 28.087,15.973 28.972,15.973C29.857,15.973 30.575,15.255 30.575,14.37C30.575,13.485 29.857,12.767 28.972,12.767ZM9.975,11.37C8.319,11.37 6.975,12.714 6.975,14.37C6.975,16.026 8.319,17.37 9.975,17.37C11.631,17.37 12.975,16.026 12.975,14.37C12.975,12.714 11.631,11.37 9.975,11.37ZM25.735,9.53C24.85,9.53 24.132,10.248 24.132,11.133C24.132,12.018 24.85,12.736 25.735,12.736C26.62,12.736 27.338,12.018 27.338,11.133C27.338,10.248 26.62,9.53 25.735,9.53ZM25.735,16.004C24.85,16.004 24.132,16.722 24.132,17.607C24.132,18.492 24.85,19.21 25.735,19.21C26.62,19.21 27.338,18.492 27.338,17.607C27.338,16.722 26.62,16.004 25.735,16.004ZM24.205,20.301C22.549,20.301 21.205,21.645 21.205,23.301C21.205,24.957 22.549,26.301 24.205,26.301C25.86,26.301 27.205,24.957 27.205,23.301C27.205,21.645 25.86,20.301 24.205,20.301ZM10.746,24.325L10.746,25.984C10.746,26.199 10.92,26.374 11.135,26.374L12.338,26.374C12.553,26.374 12.728,26.199 12.728,25.984L12.728,24.258L14.355,24.258C14.571,24.258 14.745,24.083 14.745,23.869L14.745,22.666C14.745,22.451 14.571,22.276 14.355,22.276L12.745,22.276L12.745,20.618C12.745,20.402 12.571,20.228 12.356,20.228L11.153,20.228C10.938,20.228 10.763,20.402 10.763,20.618L10.763,22.343L9.135,22.343C8.919,22.343 8.745,22.519 8.745,22.733L8.745,23.936C8.745,24.151 8.919,24.325 9.135,24.325L10.746,24.325Z" style="fill:rgb(192,192,192);"/>
    </g>
</svg>
