<?xml version="1.0" encoding="UTF-8" standalone="no"?>
<!DOCTYPE svg PUBLIC "-//W3C//DTD SVG 1.1//EN" "http://www.w3.org/Graphics/SVG/1.1/DTD/svg11.dtd">
<svg width="100%" height="100%" viewBox="0 0 150 150" version="1.1" xmlns="http://www.w3.org/2000/svg" xmlns:xlink="http://www.w3.org/1999/xlink" xml:space="preserve" xmlns:serif="http://www.serif.com/" style="fill-rule:evenodd;clip-rule:evenodd;stroke-linejoin:round;stroke-miterlimit:2;">
    <rect x="0" y="0" width="150" height="150" style="fill:rgb(241,241,241);"/>
    <g transform="matrix(2.96329,0,0,2.4954,8.73464,26.3396)">
        <path d="M40.201,29L4.523,29C3.476,29 2.627,27.891 2.627,26.521C2.627,25.573 3.512,16.881 3.512,16.38C3.512,12.859 5.919,10 8.885,10L35.839,10C38.805,10 41.212,12.859 41.212,16.38C41.212,16.881 42.097,25.573 42.097,26.521C42.097,27.891 41.248,29 40.201,29ZM36.528,16.24C35.969,16.24 35.515,16.779 35.515,17.443C35.515,18.107 35.969,18.646 36.528,18.646C37.087,18.646 37.541,18.107 37.541,17.443C37.541,16.779 37.087,16.24 36.528,16.24ZM36.528,11.38C35.969,11.38 35.515,11.919 35.515,12.584C35.515,13.248 35.969,13.787 36.528,13.787C37.087,13.787 37.541,13.248 37.541,12.584C37.541,11.919 37.087,11.38 36.528,11.38ZM34.482,13.81C33.923,13.81 33.469,14.349 33.469,15.013C33.469,15.677 33.923,16.217 34.482,16.217C35.041,16.217 35.495,15.677 35.495,15.013C35.495,14.349 35.041,13.81 34.482,13.81ZM38.574,13.81C38.015,13.81 37.561,14.349 37.561,15.013C37.561,15.677 38.015,16.217 38.574,16.217C39.134,16.217 39.588,15.677 39.588,15.013C39.588,14.349 39.134,13.81 38.574,13.81ZM8.044,13.242C6.998,13.242 6.148,14.251 6.148,15.494C6.148,16.737 6.998,17.746 8.044,17.746C9.091,17.746 9.941,16.737 9.941,15.494C9.941,14.251 9.091,13.242 8.044,13.242ZM35.561,19.465C34.514,19.465 33.664,20.474 33.664,21.717C33.664,22.96 34.514,23.969 35.561,23.969C36.607,23.969 37.457,22.96 37.457,21.717C37.457,20.474 36.607,19.465 35.561,19.465ZM32.043,12.067C31.907,11.896 31.714,11.789 31.5,11.789L13.5,11.789C13.086,11.789 12.75,12.189 12.75,12.683L12.75,26.098C12.75,26.592 13.086,26.992 13.5,26.992L31.5,26.992C31.714,26.992 31.907,26.886 32.043,26.715L32.043,12.067ZM8.531,22.967L8.531,24.212C8.531,24.373 8.642,24.504 8.778,24.504L9.538,24.504C9.674,24.504 9.784,24.373 9.784,24.212L9.784,22.916L10.813,22.916C10.949,22.916 11.06,22.785 11.06,22.624L11.06,21.721C11.06,21.56 10.949,21.429 10.813,21.429L9.795,21.429L9.795,20.184C9.795,20.022 9.685,19.891 9.549,19.891L8.789,19.891C8.653,19.891 8.543,20.022 8.543,20.184L8.543,21.479L7.513,21.479C7.377,21.479 7.267,21.61 7.267,21.772L7.267,22.674C7.267,22.836 7.377,22.967 7.513,22.967L8.531,22.967Z" style="fill:rgb(192,192,192);"/>
    </g>
</svg>
