<?xml version="1.0" encoding="UTF-8" standalone="no"?>
<!DOCTYPE svg PUBLIC "-//W3C//DTD SVG 1.1//EN" "http://www.w3.org/Graphics/SVG/1.1/DTD/svg11.dtd">
<svg width="100%" height="100%" viewBox="0 0 150 150" version="1.1" xmlns="http://www.w3.org/2000/svg" xmlns:xlink="http://www.w3.org/1999/xlink" xml:space="preserve" xmlns:serif="http://www.serif.com/" style="fill-rule:evenodd;clip-rule:evenodd;stroke-linejoin:round;stroke-miterlimit:2;">
    <rect x="0" y="0" width="150" height="150" style="fill:rgb(241,241,241);"/>
    <g transform="matrix(3.14211,0,0,3.14211,18.442,9.01568)">
        <path d="M2,36C0.896,36 0,35.101 0,33.991L2,29.096C2.333,28.092 2.896,27.088 4,27.088L5,27.088C3.896,27.088 3,26.189 3,25.08L3,8.008C3,6.899 3.896,6 5,6L31,6C32.104,6 33,6.899 33,8.008L33,25.08C33,26.189 32.104,27.088 31,27.088L32,27.088C33.104,27.088 33.583,28.133 34,29.096L36,33.992C36,35.101 35.104,36 34,36L2,36ZM22.375,33.113C22.734,33.113 22.922,32.831 22.903,32.53C22.884,32.23 22.641,30.916 22.582,30.589C22.522,30.263 22.329,30.1 22.032,30.1L15.017,30.1C14.767,30.1 14.516,30.304 14.493,30.475C14.469,30.645 14.164,32.107 14.11,32.438C14.056,32.77 14.219,33.113 14.594,33.113L22.375,33.113ZM32.906,31.042L32.146,28.867C31.907,28.407 31.511,28.03 30.958,28.03L5.11,28.03C4.558,28.03 4.204,28.438 3.954,29.066L3.266,31.043C3.047,31.639 3.714,32.047 4.266,32.047L11.844,32.047C11.844,32.047 12.781,32 12.947,31.439C13.139,30.791 13.362,29.815 13.41,29.643C13.484,29.379 13.798,29.112 14.266,29.112L22.844,29.112C23.344,29.112 23.59,29.365 23.655,29.678C23.697,29.882 23.967,30.819 24.093,31.46C24.204,32.031 25.314,32.046 25.314,32.046L31.908,32.046C32.459,32.046 33.125,31.575 32.906,31.042ZM31,24.075L31,9.013C31,8.459 30.553,8.009 30,8.009L6,8.009C5.448,8.009 5,8.458 5,9.013L5,24.075C5,24.63 5.448,25.079 6,25.079L30,25.079C30.553,25.079 31,24.63 31,24.075Z" style="fill:rgb(192,192,192);"/>
    </g>
</svg>
