<?xml version="1.0" encoding="UTF-8" standalone="no"?>
<!DOCTYPE svg PUBLIC "-//W3C//DTD SVG 1.1//EN" "http://www.w3.org/Graphics/SVG/1.1/DTD/svg11.dtd">
<svg width="100%" height="100%" viewBox="0 0 150 150" version="1.1" xmlns="http://www.w3.org/2000/svg" xmlns:xlink="http://www.w3.org/1999/xlink" xml:space="preserve" xmlns:serif="http://www.serif.com/" style="fill-rule:evenodd;clip-rule:evenodd;stroke-linejoin:round;stroke-miterlimit:2;">
    <rect x="0" y="0" width="150" height="150" style="fill:white;"/>
    <g transform="matrix(0.0412458,0,0,0.0412458,16.2899,20.6139)">
        <path d="M997.5,416L997.5,447L971,447L971,519.25L1249,519.25L1366,450.285L1366,409.5L1759,409.5L1759,448.62L1806.03,654.161L1971,657.519L1971,604.625L2021.62,554L2094,554L2094,458L2363,458L2363,554L2435.38,554L2486,604.625L2486,1956.41L1693.74,1909.21C1622.21,2176.18 1378.41,2373 1089,2373C773.808,2373 512.711,2139.55 469.33,1836.28L364,1830L364,624.813L437,626.298L437,579.313L477.625,538.688L807.375,538.688L848,579.313L848,634.663L859,634.887L859,519.25L891,519.25L891,447L864.5,447L864.5,416C864.5,412.413 894.298,409.5 931,409.5C967.702,409.5 997.5,412.413 997.5,416Z" style="fill:rgb(192,192,192);"/>
    </g>
    <g transform="matrix(0.0995841,0,0,0.0995841,0.311929,0.311929)">
        <path id="path2" d="M750,81.75C1118.82,81.75 1418.25,381.183 1418.25,750C1418.25,1118.82 1118.82,1418.25 750,1418.25C381.183,1418.25 81.75,1118.82 81.75,750C81.75,381.183 381.183,81.75 750,81.75ZM750,142.561C1085.26,142.561 1357.44,414.745 1357.44,750C1357.44,1085.26 1085.26,1357.44 750,1357.44C414.745,1357.44 142.561,1085.26 142.561,750C142.561,414.745 414.745,142.561 750,142.561Z" style="fill:rgb(85,85,85);"/>
        <path id="path4" d="M754.803,276.715C749.172,276.715 743.542,278.86 739.25,283.152L276.557,745.848C267.973,754.432 267.973,768.369 276.557,776.953L716.75,1217.15C725.334,1225.73 739.271,1225.73 747.855,1217.15L1190.1,774.904L1190.1,702.896L1172,684.797L1168.47,688.328L1127.96,647.822L1112.7,648.301L1106.53,642.131L968.639,780.021C960.061,788.598 946.135,788.598 937.557,780.021L717.576,560.041C708.999,551.463 708.999,537.537 717.576,528.959L866.869,379.666L852.648,365.445L849.266,368.828L808.73,328.293L793.801,328.801L788.4,323.4L799.646,312.443L770.355,283.152C766.063,278.86 760.433,276.715 754.803,276.715ZM744.6,321L730.949,355.199L726.783,349.498L712.83,363.449L702.166,352.785L715.986,338.965L710.1,334.801L744.6,321ZM992.572,550.291L864.092,678.771L927.729,742.408L1056.21,613.928L992.572,550.291ZM602.531,554.885C607.715,554.885 612.898,556.861 616.85,560.813L931.688,875.65C939.591,883.553 939.591,896.384 931.688,904.287L699.988,1135.99C692.085,1143.89 679.253,1143.89 671.35,1135.99L356.512,821.15C348.609,813.247 348.609,800.415 356.512,792.512L588.213,560.813C592.164,556.861 597.348,554.885 602.531,554.885ZM328.9,714.502L352.299,737.9L333.5,756.697L310.102,733.301L328.9,714.502ZM754.9,1140.35L778.299,1163.75L759.5,1182.55L736.102,1159.15L754.9,1140.35Z" style="fill:rgb(85,85,85);"/>
    </g>
</svg>
