<?xml version="1.0" encoding="UTF-8" standalone="no"?>
<!DOCTYPE svg PUBLIC "-//W3C//DTD SVG 1.1//EN" "http://www.w3.org/Graphics/SVG/1.1/DTD/svg11.dtd">
<svg width="100%" height="100%" viewBox="0 0 150 150" version="1.1" xmlns="http://www.w3.org/2000/svg" xmlns:xlink="http://www.w3.org/1999/xlink" xml:space="preserve" xmlns:serif="http://www.serif.com/" style="fill-rule:evenodd;clip-rule:evenodd;stroke-linejoin:round;stroke-miterlimit:2;">
    <rect x="0" y="0" width="150" height="150" style="fill:rgb(241,241,241);"/>
    <g transform="matrix(3.14211,0,0,3.14211,18.5723,9.42593)">
        <path d="M7.914,10L32,10C36,10 36,14 36,14L36,32C36,36 32,36 32,36L4,36C4,36 0,36 0,32L0,14C0,14 0,10 4,10L5.086,10L11.889,3.197C12.28,2.806 12.912,2.806 13.303,3.197C13.694,3.588 13.694,4.22 13.303,4.611L7.914,10ZM27.5,26C25.568,26 24,27.568 24,29.5C24,31.432 25.568,33 27.5,33C29.432,33 31,31.432 31,29.5C31,27.568 29.432,26 27.5,26ZM27.5,28C28.328,28 29,28.672 29,29.5C29,30.328 28.328,31 27.5,31C26.672,31 26,30.328 26,29.5C26,28.672 26.672,28 27.5,28ZM10.5,19C9.672,19 9,19.672 9,20.5C9,21.328 9.672,22 10.5,22C11.328,22 12,21.328 12,20.5C12,19.672 11.328,19 10.5,19ZM15.5,19C14.672,19 14,19.672 14,20.5C14,21.328 14.672,22 15.5,22C16.328,22 17,21.328 17,20.5C17,19.672 16.328,19 15.5,19ZM15.5,24C14.672,24 14,24.672 14,25.5C14,26.328 14.672,27 15.5,27C16.328,27 17,26.328 17,25.5C17,24.672 16.328,24 15.5,24ZM15.5,29C14.672,29 14,29.672 14,30.5C14,31.328 14.672,32 15.5,32C16.328,32 17,31.328 17,30.5C17,29.672 16.328,29 15.5,29ZM5.5,24C4.672,24 4,24.672 4,25.5C4,26.328 4.672,27 5.5,27C6.328,27 7,26.328 7,25.5C7,24.672 6.328,24 5.5,24ZM27.5,13C24.464,13 22,15.464 22,18.5C22,21.536 24.464,24 27.5,24C30.536,24 33,21.536 33,18.5C33,15.464 30.536,13 27.5,13ZM27.5,15C29.432,15 31,16.568 31,18.5C31,20.432 29.432,22 27.5,22C25.568,22 24,20.432 24,18.5C24,16.568 25.568,15 27.5,15ZM10.5,24C9.672,24 9,24.672 9,25.5C9,26.328 9.672,27 10.5,27C11.328,27 12,26.328 12,25.5C12,24.672 11.328,24 10.5,24ZM10.5,29C9.672,29 9,29.672 9,30.5C9,31.328 9.672,32 10.5,32C11.328,32 12,31.328 12,30.5C12,29.672 11.328,29 10.5,29ZM15.5,14C14.672,14 14,14.672 14,15.5C14,16.328 14.672,17 15.5,17C16.328,17 17,16.328 17,15.5C17,14.672 16.328,14 15.5,14ZM10.5,14C9.672,14 9,14.672 9,15.5C9,16.328 9.672,17 10.5,17C11.328,17 12,16.328 12,15.5C12,14.672 11.328,14 10.5,14ZM5.5,14C4.672,14 4,14.672 4,15.5C4,16.328 4.672,17 5.5,17C6.328,17 7,16.328 7,15.5C7,14.672 6.328,14 5.5,14ZM5.5,29C4.672,29 4,29.672 4,30.5C4,31.328 4.672,32 5.5,32C6.328,32 7,31.328 7,30.5C7,29.672 6.328,29 5.5,29ZM5.5,19C4.672,19 4,19.672 4,20.5C4,21.328 4.672,22 5.5,22C6.328,22 7,21.328 7,20.5C7,19.672 6.328,19 5.5,19ZM15.561,3.061C15.17,3.452 14.538,3.452 14.147,3.061L13.44,2.354C13.049,1.963 13.049,1.331 13.44,0.94C13.831,0.549 14.463,0.549 14.854,0.94L15.561,1.647C15.951,2.037 15.951,2.67 15.561,3.061Z" style="fill:rgb(192,192,192);"/>
    </g>
</svg>
