<?xml version="1.0" encoding="UTF-8" standalone="no"?>
<!DOCTYPE svg PUBLIC "-//W3C//DTD SVG 1.1//EN" "http://www.w3.org/Graphics/SVG/1.1/DTD/svg11.dtd">
<svg width="100%" height="100%" viewBox="0 0 150 150" version="1.1" xmlns="http://www.w3.org/2000/svg" xmlns:xlink="http://www.w3.org/1999/xlink" xml:space="preserve" xmlns:serif="http://www.serif.com/" style="fill-rule:evenodd;clip-rule:evenodd;stroke-linejoin:round;stroke-miterlimit:2;">
    <rect x="0" y="0" width="150" height="150" style="fill:rgb(241,241,241);"/>
    <g transform="matrix(3.14216,0,0,3.14216,18.4434,21.284)">
        <path d="M10.444,12.893C9.289,12.315 8.136,13.072 7.366,13.815L7.444,13.893C8.444,14.893 7.444,15.893 7.444,15.893L6.444,16.893C5.444,17.893 4.444,16.893 4.444,16.893L0.444,12.893C-0.556,11.893 0.444,10.893 0.444,10.893L1.444,9.893C2.444,8.893 3.444,9.893 3.444,9.893L10.444,2.893C15.444,-2.107 21.444,0.893 21.444,0.893C21.444,0.893 22.444,1.893 20.444,1.893C18.444,1.893 17.444,1.893 15.444,3.893C13.444,5.893 14.444,8.893 14.444,8.893L18.032,12.481L21.527,8.986C21.405,8.454 21.333,7.902 21.333,7.333C21.333,3.283 24.616,0 28.667,0C29.492,0 30.591,0.838 29.676,1.752L26.933,4.495C26.933,4.495 26.019,6.324 27.848,8.152C29.676,9.981 31.505,9.067 31.505,9.067L34.247,6.324C35.161,5.41 36,6.503 35.999,7.333C35.999,11.383 32.716,14.666 28.666,14.666C28.096,14.666 27.545,14.594 27.012,14.472L23.517,17.966L34.83,29.279C35.996,30.445 36.051,32.3 34.951,33.4C33.852,34.5 31.996,34.445 30.83,33.279L19.484,21.933L8.448,32.969C6.952,34.464 4.528,34.464 3.031,32.969C1.536,31.473 1.536,29.048 3.031,27.552L14.067,16.516L10.444,12.893ZM5.763,31.838C6.582,31.838 7.245,31.174 7.245,30.356C7.245,29.537 6.582,28.873 5.763,28.873C4.945,28.873 4.281,29.538 4.281,30.356C4.281,31.174 4.944,31.838 5.763,31.838Z" style="fill:rgb(192,192,192);"/>
    </g>
</svg>
