<?xml version="1.0" encoding="UTF-8" standalone="no"?>
<!DOCTYPE svg PUBLIC "-//W3C//DTD SVG 1.1//EN" "http://www.w3.org/Graphics/SVG/1.1/DTD/svg11.dtd">
<svg width="100%" height="100%" viewBox="0 0 150 150" version="1.1" xmlns="http://www.w3.org/2000/svg" xmlns:xlink="http://www.w3.org/1999/xlink" xml:space="preserve" xmlns:serif="http://www.serif.com/" style="fill-rule:evenodd;clip-rule:evenodd;stroke-linejoin:round;stroke-miterlimit:2;">
    <rect x="0" y="0" width="150" height="150" style="fill:rgb(241,241,241);"/>
    <g transform="matrix(3.14211,0,0,3.14211,21.442,10.5867)">
        <path d="M9,35L8,35C8,35 4,35 4,31L4,24C4,24 2,25 1,25C0,25 0,24 0,24L0,14C0,14 0,13 1,13C2,13 4,14 4,14C4,14 4,11 7,11L11,11L11,13C11,15.01 12.332,18 16,18L29,18C29.315,18 29.653,17.963 30,17.894L30,31C30,31 30,35 26,35L25,35L25,26C25,23 22,23 22,23L11.75,23C9,23 9,26 9,26L9,35ZM23,35L11,35L11,26C11,25 12,25 12,25L22,25C23,25 23,26 23,26L23,35ZM35,6C36,6 36,7 36,7L36,15C36,15 36,16 35,16C34.446,16 32.976,15.082 31.771,14.261C31.075,15.994 29,16 29,16L16,16C13,16 13,13 13,13L13,11C13,6 18,6 18,6L29,6C30.674,6 31.413,6.934 31.74,7.76C32.95,6.934 34.441,6 35,6Z" style="fill:rgb(192,192,192);"/>
    </g>
</svg>
