<?xml version="1.0" encoding="UTF-8" standalone="no"?>
<!DOCTYPE svg PUBLIC "-//W3C//DTD SVG 1.1//EN" "http://www.w3.org/Graphics/SVG/1.1/DTD/svg11.dtd">
<svg width="100%" height="100%" viewBox="0 0 1280 800" version="1.1" xmlns="http://www.w3.org/2000/svg" xmlns:xlink="http://www.w3.org/1999/xlink" xml:space="preserve" xmlns:serif="http://www.serif.com/" style="fill-rule:evenodd;clip-rule:evenodd;">
    <g>
        <g transform="matrix(1.03644,0,0,1.23077,0,0)">
            <rect x="0" y="0" width="1235" height="650" style="fill:rgb(178,34,52);"/>
        </g>
        <g transform="matrix(1.03644,0,0,1.23077,0,0)">
            <path d="M0,75L1235,75M1235,175L0,175M0,275L1235,275M1235,375L0,375M0,475L1235,475M1235,575L0,575" style="fill-rule:nonzero;stroke:white;stroke-width:50px;"/>
        </g>
        <g transform="matrix(1.23077,0,0,1.23648,0,0)">
            <rect x="0" y="0" width="494" height="350" style="fill:rgb(60,59,110);"/>
        </g>
        <g transform="matrix(1.23077,0,0,1.23077,0,0)">
            <g id="s18">
                <g id="s9">
                    <g id="s5">
                        <g id="s4">
                            <path id="s" d="M41.167,15L52.922,51.18L22.146,28.82L60.188,28.82L29.411,51.18L41.167,15Z" style="fill:white;fill-rule:nonzero;"/>
                            <g id="s1" serif:id="s" transform="matrix(1,0,0,1,0,70)">
                                <path d="M41.167,15L52.922,51.18L22.146,28.82L60.188,28.82L29.411,51.18L41.167,15Z" style="fill:white;fill-rule:nonzero;"/>
                            </g>
                            <g id="s2" serif:id="s" transform="matrix(1,0,0,1,0,140)">
                                <path d="M41.167,15L52.922,51.18L22.146,28.82L60.188,28.82L29.411,51.18L41.167,15Z" style="fill:white;fill-rule:nonzero;"/>
                            </g>
                            <g id="s3" serif:id="s" transform="matrix(1,0,0,1,0,210)">
                                <path d="M41.167,15L52.922,51.18L22.146,28.82L60.188,28.82L29.411,51.18L41.167,15Z" style="fill:white;fill-rule:nonzero;"/>
                            </g>
                        </g>
                        <g id="s6" serif:id="s" transform="matrix(1,0,0,1,0,280)">
                            <path d="M41.167,15L52.922,51.18L22.146,28.82L60.188,28.82L29.411,51.18L41.167,15Z" style="fill:white;fill-rule:nonzero;"/>
                        </g>
                    </g>
                    <g id="s41" serif:id="s4" transform="matrix(1,0,0,1,41.1667,35)">
                        <path id="s7" serif:id="s" d="M41.167,15L52.922,51.18L22.146,28.82L60.188,28.82L29.411,51.18L41.167,15Z" style="fill:white;fill-rule:nonzero;"/>
                        <g id="s8" serif:id="s" transform="matrix(1,0,0,1,0,70)">
                            <path d="M41.167,15L52.922,51.18L22.146,28.82L60.188,28.82L29.411,51.18L41.167,15Z" style="fill:white;fill-rule:nonzero;"/>
                        </g>
                        <g id="s10" serif:id="s" transform="matrix(1,0,0,1,0,140)">
                            <path d="M41.167,15L52.922,51.18L22.146,28.82L60.188,28.82L29.411,51.18L41.167,15Z" style="fill:white;fill-rule:nonzero;"/>
                        </g>
                        <g id="s11" serif:id="s" transform="matrix(1,0,0,1,0,210)">
                            <path d="M41.167,15L52.922,51.18L22.146,28.82L60.188,28.82L29.411,51.18L41.167,15Z" style="fill:white;fill-rule:nonzero;"/>
                        </g>
                    </g>
                </g>
                <g id="s91" serif:id="s9" transform="matrix(1,0,0,1,82.3333,0)">
                    <g id="s51" serif:id="s5">
                        <g id="s42" serif:id="s4">
                            <path id="s12" serif:id="s" d="M41.167,15L52.922,51.18L22.146,28.82L60.188,28.82L29.411,51.18L41.167,15Z" style="fill:white;fill-rule:nonzero;"/>
                            <g id="s13" serif:id="s" transform="matrix(1,0,0,1,0,70)">
                                <path d="M41.167,15L52.922,51.18L22.146,28.82L60.188,28.82L29.411,51.18L41.167,15Z" style="fill:white;fill-rule:nonzero;"/>
                            </g>
                            <g id="s14" serif:id="s" transform="matrix(1,0,0,1,0,140)">
                                <path d="M41.167,15L52.922,51.18L22.146,28.82L60.188,28.82L29.411,51.18L41.167,15Z" style="fill:white;fill-rule:nonzero;"/>
                            </g>
                            <g id="s15" serif:id="s" transform="matrix(1,0,0,1,0,210)">
                                <path d="M41.167,15L52.922,51.18L22.146,28.82L60.188,28.82L29.411,51.18L41.167,15Z" style="fill:white;fill-rule:nonzero;"/>
                            </g>
                        </g>
                        <g id="s16" serif:id="s" transform="matrix(1,0,0,1,0,280)">
                            <path d="M41.167,15L52.922,51.18L22.146,28.82L60.188,28.82L29.411,51.18L41.167,15Z" style="fill:white;fill-rule:nonzero;"/>
                        </g>
                    </g>
                    <g id="s43" serif:id="s4" transform="matrix(1,0,0,1,41.1667,35)">
                        <path id="s17" serif:id="s" d="M41.167,15L52.922,51.18L22.146,28.82L60.188,28.82L29.411,51.18L41.167,15Z" style="fill:white;fill-rule:nonzero;"/>
                        <g id="s19" serif:id="s" transform="matrix(1,0,0,1,0,70)">
                            <path d="M41.167,15L52.922,51.18L22.146,28.82L60.188,28.82L29.411,51.18L41.167,15Z" style="fill:white;fill-rule:nonzero;"/>
                        </g>
                        <g id="s20" serif:id="s" transform="matrix(1,0,0,1,0,140)">
                            <path d="M41.167,15L52.922,51.18L22.146,28.82L60.188,28.82L29.411,51.18L41.167,15Z" style="fill:white;fill-rule:nonzero;"/>
                        </g>
                        <g id="s21" serif:id="s" transform="matrix(1,0,0,1,0,210)">
                            <path d="M41.167,15L52.922,51.18L22.146,28.82L60.188,28.82L29.411,51.18L41.167,15Z" style="fill:white;fill-rule:nonzero;"/>
                        </g>
                    </g>
                </g>
            </g>
            <g id="s181" serif:id="s18" transform="matrix(1,0,0,1,164.667,0)">
                <g id="s92" serif:id="s9">
                    <g id="s52" serif:id="s5">
                        <g id="s44" serif:id="s4">
                            <path id="s22" serif:id="s" d="M41.167,15L52.922,51.18L22.146,28.82L60.188,28.82L29.411,51.18L41.167,15Z" style="fill:white;fill-rule:nonzero;"/>
                            <g id="s23" serif:id="s" transform="matrix(1,0,0,1,0,70)">
                                <path d="M41.167,15L52.922,51.18L22.146,28.82L60.188,28.82L29.411,51.18L41.167,15Z" style="fill:white;fill-rule:nonzero;"/>
                            </g>
                            <g id="s24" serif:id="s" transform="matrix(1,0,0,1,0,140)">
                                <path d="M41.167,15L52.922,51.18L22.146,28.82L60.188,28.82L29.411,51.18L41.167,15Z" style="fill:white;fill-rule:nonzero;"/>
                            </g>
                            <g id="s25" serif:id="s" transform="matrix(1,0,0,1,0,210)">
                                <path d="M41.167,15L52.922,51.18L22.146,28.82L60.188,28.82L29.411,51.18L41.167,15Z" style="fill:white;fill-rule:nonzero;"/>
                            </g>
                        </g>
                        <g id="s26" serif:id="s" transform="matrix(1,0,0,1,0,280)">
                            <path d="M41.167,15L52.922,51.18L22.146,28.82L60.188,28.82L29.411,51.18L41.167,15Z" style="fill:white;fill-rule:nonzero;"/>
                        </g>
                    </g>
                    <g id="s45" serif:id="s4" transform="matrix(1,0,0,1,41.1667,35)">
                        <path id="s27" serif:id="s" d="M41.167,15L52.922,51.18L22.146,28.82L60.188,28.82L29.411,51.18L41.167,15Z" style="fill:white;fill-rule:nonzero;"/>
                        <g id="s28" serif:id="s" transform="matrix(1,0,0,1,0,70)">
                            <path d="M41.167,15L52.922,51.18L22.146,28.82L60.188,28.82L29.411,51.18L41.167,15Z" style="fill:white;fill-rule:nonzero;"/>
                        </g>
                        <g id="s29" serif:id="s" transform="matrix(1,0,0,1,0,140)">
                            <path d="M41.167,15L52.922,51.18L22.146,28.82L60.188,28.82L29.411,51.18L41.167,15Z" style="fill:white;fill-rule:nonzero;"/>
                        </g>
                        <g id="s30" serif:id="s" transform="matrix(1,0,0,1,0,210)">
                            <path d="M41.167,15L52.922,51.18L22.146,28.82L60.188,28.82L29.411,51.18L41.167,15Z" style="fill:white;fill-rule:nonzero;"/>
                        </g>
                    </g>
                </g>
                <g id="s93" serif:id="s9" transform="matrix(1,0,0,1,82.3333,0)">
                    <g id="s53" serif:id="s5">
                        <g id="s46" serif:id="s4">
                            <path id="s31" serif:id="s" d="M41.167,15L52.922,51.18L22.146,28.82L60.188,28.82L29.411,51.18L41.167,15Z" style="fill:white;fill-rule:nonzero;"/>
                            <g id="s32" serif:id="s" transform="matrix(1,0,0,1,0,70)">
                                <path d="M41.167,15L52.922,51.18L22.146,28.82L60.188,28.82L29.411,51.18L41.167,15Z" style="fill:white;fill-rule:nonzero;"/>
                            </g>
                            <g id="s33" serif:id="s" transform="matrix(1,0,0,1,0,140)">
                                <path d="M41.167,15L52.922,51.18L22.146,28.82L60.188,28.82L29.411,51.18L41.167,15Z" style="fill:white;fill-rule:nonzero;"/>
                            </g>
                            <g id="s34" serif:id="s" transform="matrix(1,0,0,1,0,210)">
                                <path d="M41.167,15L52.922,51.18L22.146,28.82L60.188,28.82L29.411,51.18L41.167,15Z" style="fill:white;fill-rule:nonzero;"/>
                            </g>
                        </g>
                        <g id="s35" serif:id="s" transform="matrix(1,0,0,1,0,280)">
                            <path d="M41.167,15L52.922,51.18L22.146,28.82L60.188,28.82L29.411,51.18L41.167,15Z" style="fill:white;fill-rule:nonzero;"/>
                        </g>
                    </g>
                    <g id="s47" serif:id="s4" transform="matrix(1,0,0,1,41.1667,35)">
                        <path id="s36" serif:id="s" d="M41.167,15L52.922,51.18L22.146,28.82L60.188,28.82L29.411,51.18L41.167,15Z" style="fill:white;fill-rule:nonzero;"/>
                        <g id="s37" serif:id="s" transform="matrix(1,0,0,1,0,70)">
                            <path d="M41.167,15L52.922,51.18L22.146,28.82L60.188,28.82L29.411,51.18L41.167,15Z" style="fill:white;fill-rule:nonzero;"/>
                        </g>
                        <g id="s38" serif:id="s" transform="matrix(1,0,0,1,0,140)">
                            <path d="M41.167,15L52.922,51.18L22.146,28.82L60.188,28.82L29.411,51.18L41.167,15Z" style="fill:white;fill-rule:nonzero;"/>
                        </g>
                        <g id="s39" serif:id="s" transform="matrix(1,0,0,1,0,210)">
                            <path d="M41.167,15L52.922,51.18L22.146,28.82L60.188,28.82L29.411,51.18L41.167,15Z" style="fill:white;fill-rule:nonzero;"/>
                        </g>
                    </g>
                </g>
            </g>
            <g id="s94" serif:id="s9" transform="matrix(1,0,0,1,329.333,0)">
                <g id="s54" serif:id="s5">
                    <g id="s48" serif:id="s4">
                        <path id="s40" serif:id="s" d="M41.167,15L52.922,51.18L22.146,28.82L60.188,28.82L29.411,51.18L41.167,15Z" style="fill:white;fill-rule:nonzero;"/>
                        <g id="s49" serif:id="s" transform="matrix(1,0,0,1,0,70)">
                            <path d="M41.167,15L52.922,51.18L22.146,28.82L60.188,28.82L29.411,51.18L41.167,15Z" style="fill:white;fill-rule:nonzero;"/>
                        </g>
                        <g id="s50" serif:id="s" transform="matrix(1,0,0,1,0,140)">
                            <path d="M41.167,15L52.922,51.18L22.146,28.82L60.188,28.82L29.411,51.18L41.167,15Z" style="fill:white;fill-rule:nonzero;"/>
                        </g>
                        <g id="s55" serif:id="s" transform="matrix(1,0,0,1,0,210)">
                            <path d="M41.167,15L52.922,51.18L22.146,28.82L60.188,28.82L29.411,51.18L41.167,15Z" style="fill:white;fill-rule:nonzero;"/>
                        </g>
                    </g>
                    <g id="s56" serif:id="s" transform="matrix(1,0,0,1,0,280)">
                        <path d="M41.167,15L52.922,51.18L22.146,28.82L60.188,28.82L29.411,51.18L41.167,15Z" style="fill:white;fill-rule:nonzero;"/>
                    </g>
                </g>
                <g id="s410" serif:id="s4" transform="matrix(1,0,0,1,41.1667,35)">
                    <path id="s57" serif:id="s" d="M41.167,15L52.922,51.18L22.146,28.82L60.188,28.82L29.411,51.18L41.167,15Z" style="fill:white;fill-rule:nonzero;"/>
                    <g id="s58" serif:id="s" transform="matrix(1,0,0,1,0,70)">
                        <path d="M41.167,15L52.922,51.18L22.146,28.82L60.188,28.82L29.411,51.18L41.167,15Z" style="fill:white;fill-rule:nonzero;"/>
                    </g>
                    <g id="s59" serif:id="s" transform="matrix(1,0,0,1,0,140)">
                        <path d="M41.167,15L52.922,51.18L22.146,28.82L60.188,28.82L29.411,51.18L41.167,15Z" style="fill:white;fill-rule:nonzero;"/>
                    </g>
                    <g id="s60" serif:id="s" transform="matrix(1,0,0,1,0,210)">
                        <path d="M41.167,15L52.922,51.18L22.146,28.82L60.188,28.82L29.411,51.18L41.167,15Z" style="fill:white;fill-rule:nonzero;"/>
                    </g>
                </g>
            </g>
            <g id="s510" serif:id="s5" transform="matrix(1,0,0,1,411.667,0)">
                <g id="s411" serif:id="s4">
                    <path id="s61" serif:id="s" d="M41.167,15L52.922,51.18L22.146,28.82L60.188,28.82L29.411,51.18L41.167,15Z" style="fill:white;fill-rule:nonzero;"/>
                    <g id="s62" serif:id="s" transform="matrix(1,0,0,1,0,70)">
                        <path d="M41.167,15L52.922,51.18L22.146,28.82L60.188,28.82L29.411,51.18L41.167,15Z" style="fill:white;fill-rule:nonzero;"/>
                    </g>
                    <g id="s63" serif:id="s" transform="matrix(1,0,0,1,0,140)">
                        <path d="M41.167,15L52.922,51.18L22.146,28.82L60.188,28.82L29.411,51.18L41.167,15Z" style="fill:white;fill-rule:nonzero;"/>
                    </g>
                    <g id="s64" serif:id="s" transform="matrix(1,0,0,1,0,210)">
                        <path d="M41.167,15L52.922,51.18L22.146,28.82L60.188,28.82L29.411,51.18L41.167,15Z" style="fill:white;fill-rule:nonzero;"/>
                    </g>
                </g>
                <g id="s65" serif:id="s" transform="matrix(1,0,0,1,0,280)">
                    <path d="M41.167,15L52.922,51.18L22.146,28.82L60.188,28.82L29.411,51.18L41.167,15Z" style="fill:white;fill-rule:nonzero;"/>
                </g>
            </g>
        </g>
    </g>
    <g>
        <path d="M1280,47L66,800L1280,800L1280,47Z" style="fill:rgb(1,33,105);"/>
        <g>
            <g transform="matrix(0.156147,0.250503,-1.28546,0.80127,1218.68,162.112)">
                <rect x="-319" y="-93" width="214" height="1021" style="fill:white;"/>
            </g>
            <path d="M519.177,560.987L519.177,800L760,800L760,564L1144,800L1280,800L1280,715L970,520L1280,520L1280,279L888,279L521,520L519.177,560.987Z" style="fill:white;"/>
        </g>
        <g>
            <g>
                <path d="M519,520L465,520L16,800L91,800L519,532L519,520Z" style="fill:rgb(200,16,46);"/>
                <path d="M543,472L567,472L567,800L713,800L713,473L1280,473L1280,328L774,328L543,472Z" style="fill:rgb(200,16,46);"/>
            </g>
            <g transform="matrix(1,0,0,1,0,1)">
                <path d="M835,520L924,520L1280,743L1280,800.001L835,520Z" style="fill:rgb(200,16,46);"/>
            </g>
        </g>
    </g>
</svg>
