<?xml version="1.0" encoding="UTF-8" standalone="no"?><!DOCTYPE svg PUBLIC "-//W3C//DTD SVG 1.1//EN" "http://www.w3.org/Graphics/SVG/1.1/DTD/svg11.dtd"><svg width="100%" height="100%" viewBox="0 0 1010 158" version="1.1" xmlns="http://www.w3.org/2000/svg" xmlns:xlink="http://www.w3.org/1999/xlink" xml:space="preserve" xmlns:serif="http://www.serif.com/" style="fill-rule:evenodd;clip-rule:evenodd;stroke-linejoin:round;stroke-miterlimit:2;"><g transform="matrix(0.116045,0,0,0.116045,5.82896,-8.03399)"><path id="path2" d="M750,81.75C1118.82,81.75 1418.25,381.183 1418.25,750C1418.25,1118.82 1118.82,1418.25 750,1418.25C381.183,1418.25 81.75,1118.82 81.75,750C81.75,381.183 381.183,81.75 750,81.75ZM750,142.561C1085.26,142.561 1357.44,414.745 1357.44,750C1357.44,1085.26 1085.26,1357.44 750,1357.44C414.745,1357.44 142.561,1085.26 142.561,750C142.561,414.745 414.745,142.561 750,142.561Z" style="fill:rgb(49,197,240);"/><path id="path4" d="M754.803,276.715C749.172,276.715 743.542,278.86 739.25,283.152L276.557,745.848C267.973,754.432 267.973,768.369 276.557,776.953L716.75,1217.15C725.334,1225.73 739.271,1225.73 747.855,1217.15L1190.1,774.904L1190.1,702.896L1172,684.797L1168.47,688.328L1127.96,647.822L1112.7,648.301L1106.53,642.131L968.639,780.021C960.061,788.598 946.135,788.598 937.557,780.021L717.576,560.041C708.999,551.463 708.999,537.537 717.576,528.959L866.869,379.666L852.648,365.445L849.266,368.828L808.73,328.293L793.801,328.801L788.4,323.4L799.646,312.443L770.355,283.152C766.063,278.86 760.433,276.715 754.803,276.715ZM744.6,321L730.949,355.199L726.783,349.498L712.83,363.449L702.166,352.785L715.986,338.965L710.1,334.801L744.6,321ZM992.572,550.291L864.092,678.771L927.729,742.408L1056.21,613.928L992.572,550.291ZM602.531,554.885C607.715,554.885 612.898,556.861 616.85,560.813L931.688,875.65C939.591,883.553 939.591,896.384 931.688,904.287L699.988,1135.99C692.085,1143.89 679.253,1143.89 671.35,1135.99L356.512,821.15C348.609,813.247 348.609,800.415 356.512,792.512L588.213,560.813C592.164,556.861 597.348,554.885 602.531,554.885ZM328.9,714.502L352.299,737.9L333.5,756.697L310.102,733.301L328.9,714.502ZM754.9,1140.35L778.299,1163.75L759.5,1182.55L736.102,1159.15L754.9,1140.35Z" style="fill:rgb(49,197,240);"/></g><g transform="matrix(0.35142,0,0,0.35142,-19.7161,-0.873479)"><path d="M810.331,112.376C804.379,118.904 797.659,126.152 790.171,134.12C782.683,142.088 774.859,150.248 766.699,158.6C758.539,166.952 750.427,175.16 742.363,183.224C734.299,191.288 726.715,198.776 719.611,205.688C727.867,211.448 736.603,218.552 745.819,227C755.035,235.448 764.059,244.472 772.891,254.072C781.723,263.672 790.027,273.464 797.803,283.448C805.579,293.432 812.059,302.936 817.243,311.96L784.411,311.96C778.651,302.936 772.027,293.864 764.539,284.744C757.051,275.624 749.131,266.888 740.779,258.536C732.427,250.184 723.979,242.456 715.435,235.352C706.891,228.248 698.587,222.2 690.523,217.208L690.523,311.96L662.587,311.96L662.587,112.376L690.523,112.376L690.523,200.504C697.243,194.168 704.635,187.016 712.699,179.048C720.763,171.08 728.731,163.064 736.603,155C744.475,146.936 751.915,139.208 758.923,131.816C765.931,124.424 771.835,117.944 776.635,112.376L810.331,112.376ZM886.939,314.84C870.427,314.456 858.715,310.904 851.803,304.184C844.891,297.464 841.435,287 841.435,272.792L841.435,93.08L868.219,88.472L868.219,268.472C868.219,272.888 868.603,276.536 869.371,279.416C870.139,282.296 871.387,284.6 873.115,286.328C874.843,288.056 877.147,289.352 880.027,290.216C882.907,291.08 886.459,291.8 890.683,292.376L886.939,314.84ZM969.019,158.456C979.771,158.456 988.843,159.848 996.235,162.632C1003.63,165.416 1009.58,169.352 1014.09,174.44C1018.6,179.528 1021.82,185.576 1023.74,192.584C1025.66,199.592 1026.62,207.32 1026.62,215.768L1026.62,309.368C1024.32,309.752 1021.1,310.28 1016.97,310.952C1012.84,311.624 1008.19,312.248 1003,312.824C997.819,313.4 992.203,313.928 986.155,314.408C980.107,314.888 974.107,315.128 968.155,315.128C959.707,315.128 951.931,314.264 944.827,312.536C937.723,310.808 931.579,308.072 926.395,304.328C921.211,300.584 917.179,295.64 914.299,289.496C911.419,283.352 909.979,275.96 909.979,267.32C909.979,259.064 911.659,251.96 915.019,246.008C918.379,240.056 922.939,235.256 928.699,231.608C934.459,227.96 941.179,225.272 948.859,223.544C956.539,221.816 964.603,220.952 973.051,220.952C975.739,220.952 978.523,221.096 981.403,221.384C984.283,221.672 987.019,222.056 989.611,222.536C992.203,223.016 994.459,223.448 996.379,223.832C998.299,224.216 999.643,224.504 1000.41,224.696L1000.41,217.208C1000.41,212.792 999.931,208.424 998.971,204.104C998.011,199.784 996.283,195.944 993.787,192.584C991.291,189.224 987.883,186.536 983.563,184.52C979.243,182.504 973.627,181.496 966.715,181.496C957.883,181.496 950.155,182.12 943.531,183.368C936.907,184.616 931.963,185.912 928.699,187.256L925.531,165.08C928.987,163.544 934.747,162.056 942.811,160.616C950.875,159.176 959.611,158.456 969.019,158.456ZM971.323,292.664C977.659,292.664 983.275,292.52 988.171,292.232C993.067,291.944 997.147,291.416 1000.41,290.648L1000.41,246.008C998.491,245.048 995.371,244.232 991.051,243.56C986.731,242.888 981.499,242.552 975.355,242.552C971.323,242.552 967.051,242.84 962.539,243.416C958.027,243.992 953.899,245.192 950.155,247.016C946.411,248.84 943.291,251.336 940.795,254.504C938.299,257.672 937.051,261.848 937.051,267.032C937.051,276.632 940.123,283.304 946.267,287.048C952.411,290.792 960.763,292.664 971.323,292.664ZM1070.97,166.52C1077.12,164.984 1085.23,163.352 1095.31,161.624C1105.39,159.896 1117.05,159.032 1130.3,159.032C1139.9,159.032 1147.96,160.328 1154.49,162.92C1161.02,165.512 1166.49,169.304 1170.91,174.296C1172.25,173.336 1174.36,171.992 1177.24,170.264C1180.12,168.536 1183.67,166.856 1187.9,165.224C1192.12,163.592 1196.83,162.152 1202.01,160.904C1207.19,159.656 1212.76,159.032 1218.71,159.032C1230.24,159.032 1239.64,160.712 1246.94,164.072C1254.24,167.432 1259.95,172.184 1264.08,178.328C1268.2,184.472 1270.99,191.768 1272.43,200.216C1273.87,208.664 1274.59,217.88 1274.59,227.864L1274.59,311.96L1247.8,311.96L1247.8,233.624C1247.8,224.792 1247.37,217.208 1246.51,210.872C1245.64,204.536 1244.01,199.256 1241.61,195.032C1239.21,190.808 1235.95,187.688 1231.82,185.672C1227.69,183.656 1222.36,182.648 1215.84,182.648C1206.81,182.648 1199.37,183.848 1193.52,186.248C1187.66,188.648 1183.67,190.808 1181.56,192.728C1183.1,197.72 1184.25,203.192 1185.02,209.144C1185.79,215.096 1186.17,221.336 1186.17,227.864L1186.17,311.96L1159.39,311.96L1159.39,233.624C1159.39,224.792 1158.91,217.208 1157.95,210.872C1156.99,204.536 1155.31,199.256 1152.91,195.032C1150.51,190.808 1147.24,187.688 1143.12,185.672C1138.99,183.656 1133.76,182.648 1127.42,182.648C1124.73,182.648 1121.85,182.744 1118.78,182.936C1115.71,183.128 1112.78,183.368 1110,183.656C1107.21,183.944 1104.67,184.28 1102.36,184.664C1100.06,185.048 1098.52,185.336 1097.76,185.528L1097.76,311.96L1070.97,311.96L1070.97,166.52ZM1451.13,237.08C1451.13,248.984 1449.4,259.736 1445.95,269.336C1442.49,278.936 1437.64,287.192 1431.4,294.104C1425.16,301.016 1417.72,306.344 1409.08,310.088C1400.44,313.832 1391.04,315.704 1380.86,315.704C1370.68,315.704 1361.28,313.832 1352.63,310.088C1344,306.344 1336.56,301.016 1330.32,294.104C1324.08,287.192 1319.23,278.936 1315.77,269.336C1312.32,259.736 1310.59,248.984 1310.59,237.08C1310.59,225.368 1312.32,214.664 1315.77,204.968C1319.23,195.272 1324.08,186.968 1330.32,180.056C1336.56,173.144 1344,167.816 1352.63,164.072C1361.28,160.328 1370.68,158.456 1380.86,158.456C1391.04,158.456 1400.44,160.328 1409.08,164.072C1417.72,167.816 1425.16,173.144 1431.4,180.056C1437.64,186.968 1442.49,195.272 1445.95,204.968C1449.4,214.664 1451.13,225.368 1451.13,237.08ZM1423.19,237.08C1423.19,220.184 1419.4,206.792 1411.82,196.904C1404.24,187.016 1393.91,182.072 1380.86,182.072C1367.8,182.072 1357.48,187.016 1349.9,196.904C1342.32,206.792 1338.52,220.184 1338.52,237.08C1338.52,253.976 1342.32,267.368 1349.9,277.256C1357.48,287.144 1367.8,292.088 1380.86,292.088C1393.91,292.088 1404.24,287.144 1411.82,277.256C1419.4,267.368 1423.19,253.976 1423.19,237.08ZM1513.91,162.2L1570.65,162.2L1570.65,184.664L1513.91,184.664L1513.91,253.784C1513.91,261.272 1514.49,267.464 1515.64,272.36C1516.8,277.256 1518.52,281.096 1520.83,283.88C1523.13,286.664 1526.01,288.632 1529.47,289.784C1532.92,290.936 1536.95,291.512 1541.56,291.512C1549.63,291.512 1556.11,290.6 1561,288.776C1565.9,286.952 1569.31,285.656 1571.23,284.888L1576.41,307.064C1573.72,308.408 1569.02,310.088 1562.3,312.104C1555.58,314.12 1547.9,315.128 1539.26,315.128C1529.08,315.128 1520.68,313.832 1514.06,311.24C1507.43,308.648 1502.11,304.76 1498.08,299.576C1494.04,294.392 1491.21,288.008 1489.58,280.424C1487.95,272.84 1487.13,264.056 1487.13,254.072L1487.13,120.44L1513.91,115.832L1513.91,162.2ZM1587.07,339.896C1589.18,340.856 1591.91,341.768 1595.28,342.632C1598.63,343.496 1601.95,343.928 1605.21,343.928C1615.77,343.928 1624.03,341.576 1629.98,336.872C1635.93,332.168 1641.31,324.536 1646.11,313.976C1634.01,290.936 1622.73,266.504 1612.27,240.68C1601.8,214.856 1593.12,188.696 1586.2,162.2L1615,162.2C1617.12,170.84 1619.66,180.152 1622.63,190.136C1625.61,200.12 1628.92,210.392 1632.57,220.952C1636.22,231.512 1640.15,242.072 1644.38,252.632C1648.6,263.192 1653.02,273.368 1657.63,283.16C1664.92,263 1671.26,243.032 1676.63,223.256C1682.01,203.48 1687.1,183.128 1691.9,162.2L1719.55,162.2C1712.63,190.424 1704.95,217.544 1696.51,243.56C1688.06,269.576 1678.94,293.912 1669.15,316.568C1665.31,325.208 1661.32,332.648 1657.19,338.888C1653.07,345.128 1648.51,350.264 1643.52,354.296C1638.52,358.328 1632.91,361.304 1626.67,363.224C1620.43,365.144 1613.37,366.104 1605.5,366.104C1603.39,366.104 1601.18,365.96 1598.88,365.672C1596.57,365.384 1594.32,365 1592.11,364.52C1589.9,364.04 1587.88,363.512 1586.06,362.936C1584.24,362.36 1582.94,361.88 1582.17,361.496L1587.07,339.896ZM1905.6,284.312C1903.67,279.704 1901.13,273.848 1897.96,266.744C1894.8,259.64 1891.39,251.96 1887.74,243.704C1884.09,235.448 1880.2,226.952 1876.08,218.216C1871.95,209.48 1868.06,201.224 1864.41,193.448C1860.76,185.672 1857.36,178.712 1854.19,172.568C1851.02,166.424 1848.48,161.72 1846.56,158.456C1844.44,181.112 1842.72,205.64 1841.37,232.04C1840.03,258.44 1838.88,285.08 1837.91,311.96L1810.56,311.96C1811.32,294.68 1812.19,277.256 1813.15,259.688C1814.11,242.12 1815.21,224.84 1816.46,207.848C1817.71,190.856 1819.05,174.296 1820.49,158.168C1821.93,142.04 1823.52,126.776 1825.24,112.376L1849.72,112.376C1854.91,120.824 1860.48,130.808 1866.43,142.328C1872.38,153.848 1878.33,165.896 1884.28,178.472C1890.24,191.048 1896,203.624 1901.56,216.2C1907.13,228.776 1912.22,240.248 1916.83,250.616C1921.43,240.248 1926.52,228.776 1932.09,216.2C1937.66,203.624 1943.42,191.048 1949.37,178.472C1955.32,165.896 1961.28,153.848 1967.23,142.328C1973.18,130.808 1978.75,120.824 1983.93,112.376L2008.41,112.376C2014.94,176.696 2019.84,243.224 2023.1,311.96L1995.74,311.96C1994.78,285.08 1993.63,258.44 1992.28,232.04C1990.94,205.64 1989.21,181.112 1987.1,158.456C1985.18,161.72 1982.63,166.424 1979.47,172.568C1976.3,178.712 1972.89,185.672 1969.24,193.448C1965.6,201.224 1961.71,209.48 1957.58,218.216C1953.45,226.952 1949.56,235.448 1945.91,243.704C1942.27,251.96 1938.86,259.64 1935.69,266.744C1932.52,273.848 1929.98,279.704 1928.06,284.312L1905.6,284.312ZM2113.53,158.456C2124.28,158.456 2133.36,159.848 2140.75,162.632C2148.14,165.416 2154.09,169.352 2158.6,174.44C2163.12,179.528 2166.33,185.576 2168.25,192.584C2170.17,199.592 2171.13,207.32 2171.13,215.768L2171.13,309.368C2168.83,309.752 2165.61,310.28 2161.48,310.952C2157.36,311.624 2152.7,312.248 2147.51,312.824C2142.33,313.4 2136.72,313.928 2130.67,314.408C2124.62,314.888 2118.62,315.128 2112.67,315.128C2104.22,315.128 2096.44,314.264 2089.34,312.536C2082.24,310.808 2076.09,308.072 2070.91,304.328C2065.72,300.584 2061.69,295.64 2058.81,289.496C2055.93,283.352 2054.49,275.96 2054.49,267.32C2054.49,259.064 2056.17,251.96 2059.53,246.008C2062.89,240.056 2067.45,235.256 2073.21,231.608C2078.97,227.96 2085.69,225.272 2093.37,223.544C2101.05,221.816 2109.12,220.952 2117.56,220.952C2120.25,220.952 2123.03,221.096 2125.91,221.384C2128.8,221.672 2131.53,222.056 2134.12,222.536C2136.72,223.016 2138.97,223.448 2140.89,223.832C2142.81,224.216 2144.16,224.504 2144.92,224.696L2144.92,217.208C2144.92,212.792 2144.44,208.424 2143.48,204.104C2142.52,199.784 2140.8,195.944 2138.3,192.584C2135.8,189.224 2132.39,186.536 2128.07,184.52C2123.76,182.504 2118.14,181.496 2111.23,181.496C2102.39,181.496 2094.67,182.12 2088.04,183.368C2081.42,184.616 2076.47,185.912 2073.21,187.256L2070.04,165.08C2073.5,163.544 2079.26,162.056 2087.32,160.616C2095.39,159.176 2104.12,158.456 2113.53,158.456ZM2115.84,292.664C2122.17,292.664 2127.79,292.52 2132.68,292.232C2137.58,291.944 2141.66,291.416 2144.92,290.648L2144.92,246.008C2143,245.048 2139.88,244.232 2135.56,243.56C2131.24,242.888 2126.01,242.552 2119.87,242.552C2115.84,242.552 2111.56,242.84 2107.05,243.416C2102.54,243.992 2098.41,245.192 2094.67,247.016C2090.92,248.84 2087.8,251.336 2085.31,254.504C2082.81,257.672 2081.56,261.848 2081.56,267.032C2081.56,276.632 2084.64,283.304 2090.78,287.048C2096.92,290.792 2105.28,292.664 2115.84,292.664ZM2240.54,162.2L2297.28,162.2L2297.28,184.664L2240.54,184.664L2240.54,253.784C2240.54,261.272 2241.12,267.464 2242.27,272.36C2243.42,277.256 2245.15,281.096 2247.45,283.88C2249.76,286.664 2252.64,288.632 2256.09,289.784C2259.55,290.936 2263.58,291.512 2268.19,291.512C2276.25,291.512 2282.73,290.6 2287.63,288.776C2292.52,286.952 2295.93,285.656 2297.85,284.888L2303.03,307.064C2300.35,308.408 2295.64,310.088 2288.92,312.104C2282.2,314.12 2274.52,315.128 2265.88,315.128C2255.71,315.128 2247.31,313.832 2240.68,311.24C2234.06,308.648 2228.73,304.76 2224.7,299.576C2220.67,294.392 2217.84,288.008 2216.2,280.424C2214.57,272.84 2213.76,264.056 2213.76,254.072L2213.76,120.44L2240.54,115.832L2240.54,162.2ZM2376.19,314.84C2359.68,314.456 2347.96,310.904 2341.05,304.184C2334.14,297.464 2330.68,287 2330.68,272.792L2330.68,93.08L2357.47,88.472L2357.47,268.472C2357.47,272.888 2357.85,276.536 2358.62,279.416C2359.39,282.296 2360.64,284.6 2362.36,286.328C2364.09,288.056 2366.39,289.352 2369.28,290.216C2372.16,291.08 2375.71,291.8 2379.93,292.376L2376.19,314.84ZM2458.27,158.456C2469.02,158.456 2478.09,159.848 2485.48,162.632C2492.88,165.416 2498.83,169.352 2503.34,174.44C2507.85,179.528 2511.07,185.576 2512.99,192.584C2514.91,199.592 2515.87,207.32 2515.87,215.768L2515.87,309.368C2513.56,309.752 2510.35,310.28 2506.22,310.952C2502.09,311.624 2497.43,312.248 2492.25,312.824C2487.07,313.4 2481.45,313.928 2475.4,314.408C2469.36,314.888 2463.36,315.128 2457.4,315.128C2448.95,315.128 2441.18,314.264 2434.08,312.536C2426.97,310.808 2420.83,308.072 2415.64,304.328C2410.46,300.584 2406.43,295.64 2403.55,289.496C2400.67,283.352 2399.23,275.96 2399.23,267.32C2399.23,259.064 2400.91,251.96 2404.27,246.008C2407.63,240.056 2412.19,235.256 2417.95,231.608C2423.71,227.96 2430.43,225.272 2438.11,223.544C2445.79,221.816 2453.85,220.952 2462.3,220.952C2464.99,220.952 2467.77,221.096 2470.65,221.384C2473.53,221.672 2476.27,222.056 2478.86,222.536C2481.45,223.016 2483.71,223.448 2485.63,223.832C2487.55,224.216 2488.89,224.504 2489.66,224.696L2489.66,217.208C2489.66,212.792 2489.18,208.424 2488.22,204.104C2487.26,199.784 2485.53,195.944 2483.03,192.584C2480.54,189.224 2477.13,186.536 2472.81,184.52C2468.49,182.504 2462.88,181.496 2455.96,181.496C2447.13,181.496 2439.4,182.12 2432.78,183.368C2426.16,184.616 2421.21,185.912 2417.95,187.256L2414.78,165.08C2418.24,163.544 2423.99,162.056 2432.06,160.616C2440.12,159.176 2448.86,158.456 2458.27,158.456ZM2460.57,292.664C2466.91,292.664 2472.52,292.52 2477.42,292.232C2482.32,291.944 2486.39,291.416 2489.66,290.648L2489.66,246.008C2487.74,245.048 2484.62,244.232 2480.3,243.56C2475.98,242.888 2470.75,242.552 2464.6,242.552C2460.57,242.552 2456.3,242.84 2451.79,243.416C2447.28,243.992 2443.15,245.192 2439.4,247.016C2435.66,248.84 2432.54,251.336 2430.04,254.504C2427.55,257.672 2426.3,261.848 2426.3,267.032C2426.3,276.632 2429.37,283.304 2435.51,287.048C2441.66,290.792 2450.01,292.664 2460.57,292.664ZM2679.16,311.96C2673.79,298.136 2668.08,282.344 2662.03,264.584C2655.98,246.824 2650.46,228.344 2645.47,209.144C2640.47,228.344 2635,246.824 2629.05,264.584C2623.1,282.344 2617.43,298.136 2612.06,311.96L2588.73,311.96C2579.9,292.184 2571.26,269.624 2562.81,244.28C2554.36,218.936 2546.39,191.576 2538.91,162.2L2567.71,162.2C2569.63,171.224 2571.93,181.016 2574.62,191.576C2577.31,202.136 2580.14,212.696 2583.12,223.256C2586.09,233.816 2589.21,243.992 2592.47,253.784C2595.74,263.576 2598.81,272.12 2601.69,279.416C2604.95,270.392 2608.17,260.84 2611.34,250.76C2614.51,240.68 2617.53,230.504 2620.41,220.232C2623.29,209.96 2626.03,199.88 2628.62,189.992C2631.21,180.104 2633.47,170.84 2635.39,162.2L2657.56,162.2C2659.29,170.84 2661.4,180.104 2663.9,189.992C2666.39,199.88 2669.08,209.96 2671.96,220.232C2674.84,230.504 2677.87,240.68 2681.03,250.76C2684.2,260.84 2687.42,270.392 2690.68,279.416C2693.56,272.12 2696.59,263.576 2699.76,253.784C2702.92,243.992 2706.04,233.816 2709.12,223.256C2712.19,212.696 2715.07,202.136 2717.76,191.576C2720.44,181.016 2722.75,171.224 2724.67,162.2L2752.32,162.2C2744.83,191.576 2736.86,218.936 2728.41,244.28C2719.96,269.624 2711.32,292.184 2702.49,311.96L2679.16,311.96ZM2828.92,158.456C2839.68,158.456 2848.75,159.848 2856.14,162.632C2863.53,165.416 2869.48,169.352 2873.99,174.44C2878.51,179.528 2881.72,185.576 2883.64,192.584C2885.56,199.592 2886.52,207.32 2886.52,215.768L2886.52,309.368C2884.22,309.752 2881,310.28 2876.88,310.952C2872.75,311.624 2868.09,312.248 2862.91,312.824C2857.72,313.4 2852.11,313.928 2846.06,314.408C2840.01,314.888 2834.01,315.128 2828.06,315.128C2819.61,315.128 2811.84,314.264 2804.73,312.536C2797.63,310.808 2791.48,308.072 2786.3,304.328C2781.12,300.584 2777.08,295.64 2774.2,289.496C2771.32,283.352 2769.88,275.96 2769.88,267.32C2769.88,259.064 2771.56,251.96 2774.92,246.008C2778.28,240.056 2782.84,235.256 2788.6,231.608C2794.36,227.96 2801.08,225.272 2808.76,223.544C2816.44,221.816 2824.51,220.952 2832.95,220.952C2835.64,220.952 2838.43,221.096 2841.31,221.384C2844.19,221.672 2846.92,222.056 2849.51,222.536C2852.11,223.016 2854.36,223.448 2856.28,223.832C2858.2,224.216 2859.55,224.504 2860.32,224.696L2860.32,217.208C2860.32,212.792 2859.84,208.424 2858.88,204.104C2857.91,199.784 2856.19,195.944 2853.69,192.584C2851.2,189.224 2847.79,186.536 2843.47,184.52C2839.15,182.504 2833.53,181.496 2826.62,181.496C2817.79,181.496 2810.06,182.12 2803.43,183.368C2796.81,184.616 2791.87,185.912 2788.6,187.256L2785.43,165.08C2788.89,163.544 2794.65,162.056 2802.72,160.616C2810.78,159.176 2819.51,158.456 2828.92,158.456ZM2831.23,292.664C2837.56,292.664 2843.18,292.52 2848.08,292.232C2852.97,291.944 2857.05,291.416 2860.32,290.648L2860.32,246.008C2858.39,245.048 2855.28,244.232 2850.95,243.56C2846.64,242.888 2841.4,242.552 2835.26,242.552C2831.23,242.552 2826.95,242.84 2822.44,243.416C2817.93,243.992 2813.8,245.192 2810.06,247.016C2806.32,248.84 2803.2,251.336 2800.7,254.504C2798.2,257.672 2796.95,261.848 2796.95,267.032C2796.95,276.632 2800.03,283.304 2806.17,287.048C2812.32,290.792 2820.67,292.664 2831.23,292.664Z" style="fill:white;"/></g></svg>