<?xml version="1.0" encoding="UTF-8" standalone="no"?>
<svg
   xmlns:dc="http://purl.org/dc/elements/1.1/"
   xmlns:cc="http://creativecommons.org/ns#"
   xmlns:rdf="http://www.w3.org/1999/02/22-rdf-syntax-ns#"
   xmlns:svg="http://www.w3.org/2000/svg"
   xmlns="http://www.w3.org/2000/svg"
   xmlns:sodipodi="http://sodipodi.sourceforge.net/DTD/sodipodi-0.dtd"
   xmlns:inkscape="http://www.inkscape.org/namespaces/inkscape"
   width="100%"
   height="100%"
   viewBox="0 0 4209 659"
   version="1.1"
   xml:space="preserve"
   style="fill-rule:evenodd;clip-rule:evenodd;stroke-linejoin:round;stroke-miterlimit:2;"
   id="svg10"
   sodipodi:docname="logo_en.svg"
   inkscape:version="1.0.1 (3bc2e813f5, 2020-09-07)"><metadata
     id="metadata16"><rdf:RDF><cc:Work
         rdf:about=""><dc:format>image/svg+xml</dc:format><dc:type
           rdf:resource="http://purl.org/dc/dcmitype/StillImage" /></cc:Work></rdf:RDF></metadata><defs
     id="defs14" /><sodipodi:namedview
     pagecolor="#ffffff"
     bordercolor="#666666"
     borderopacity="1"
     objecttolerance="10"
     gridtolerance="10"
     guidetolerance="10"
     inkscape:pageopacity="0"
     inkscape:pageshadow="2"
     inkscape:window-width="950"
     inkscape:window-height="1007"
     id="namedview12"
     showgrid="false"
     inkscape:zoom="0.10263363"
     inkscape:cx="1893.7067"
     inkscape:cy="996.71408"
     inkscape:window-x="960"
     inkscape:window-y="0"
     inkscape:window-maximized="0"
     inkscape:current-layer="svg10" /><g
     id="g4"><path
       id="path2"
       d="M329.743,6.053c178.331,-0 323.114,144.782 323.114,323.114c-0,178.331 -144.783,323.113 -323.114,323.113c-178.331,0 -323.114,-144.782 -323.114,-323.113c0,-178.332 144.783,-323.114 323.114,-323.114Zm0,29.403c162.103,0 293.71,131.607 293.71,293.711c0,162.103 -131.607,293.71 -293.71,293.71c-162.103,-0 -293.71,-131.607 -293.71,-293.71c-0,-162.104 131.607,-293.711 293.71,-293.711Z"
       style="fill:#31c5f0;" /><path
       id="path4"
       d="M332.065,100.323c-2.722,-0 -5.444,1.037 -7.52,3.112l-223.722,223.724c-4.151,4.15 -4.151,10.89 -0,15.04l212.843,212.843c4.151,4.151 10.89,4.151 15.04,0l213.835,-213.834l0,-34.817l-8.752,-8.751l-1.707,1.707l-19.585,-19.586l-7.381,0.232l-2.983,-2.983l-66.673,66.673c-4.148,4.147 -10.881,4.147 -15.029,-0l-106.365,-106.366c-4.148,-4.147 -4.148,-10.881 -0,-15.029l72.186,-72.186l-6.876,-6.876l-1.636,1.636l-19.599,-19.6l-7.219,0.246l-2.611,-2.612l5.437,-5.298l-14.163,-14.163c-2.075,-2.075 -4.797,-3.112 -7.52,-3.112Zm-4.933,21.413l-6.6,16.536l-2.015,-2.757l-6.746,6.746l-5.157,-5.157l6.683,-6.682l-2.847,-2.013l16.682,-6.673Zm119.9,110.867l-62.123,62.123l30.77,30.77l62.124,-62.123l-30.771,-30.77Zm-188.593,2.221c2.506,0 5.012,0.956 6.923,2.866l152.231,152.231c3.821,3.822 3.821,10.026 0,13.847l-112.032,112.033c-3.821,3.821 -10.026,3.821 -13.847,-0l-152.231,-152.232c-3.821,-3.821 -3.821,-10.026 -0,-13.847l112.032,-112.032c1.911,-1.91 4.417,-2.866 6.924,-2.866Zm-132.307,77.179l11.314,11.313l-9.09,9.089l-11.314,-11.313l9.09,-9.089Zm205.981,205.907l11.313,11.314l-9.089,9.09l-11.314,-11.314l9.09,-9.09Z"
       style="fill:#31c5f0;" /></g><path
     id="path81"
     style="font-size:421.704px;font-family:Ubuntu, sans-serif;fill:#ffffff"
     d="m 4103.2754,424.74284 q 24.0372,0 35.4232,-6.32556 11.8077,-6.32556 11.8077,-20.24179 0,-14.33794 -11.386,-22.77202 -11.386,-8.43408 -37.5317,-18.97668 -12.6511,-5.06045 -24.4588,-10.1209 -11.386,-5.48215 -19.8201,-12.65112 -8.4341,-7.16896 -13.4945,-17.28986 -5.0605,-10.1209 -5.0605,-24.88054 0,-29.09757 21.5069,-45.96573 21.5069,-17.28987 58.6169,-17.28987 9.2775,0 18.555,1.26511 9.2775,0.84341 17.2898,2.53023 8.0124,1.26511 13.9163,2.95193 6.3255,1.68681 9.6992,2.95192 l -7.169,33.73632 q -6.3256,-3.37363 -19.8201,-6.74726 -13.4945,-3.79534 -32.4712,-3.79534 -16.4465,0 -28.6759,6.74727 -12.2294,6.32556 -12.2294,20.24179 0,7.16897 2.5302,12.65112 2.952,5.48215 8.4341,10.1209 5.9039,4.21704 14.3379,8.01237 8.4341,3.79534 20.2418,8.01238 15.6031,5.90386 27.8325,11.80771 12.2294,5.48215 20.6635,13.07283 8.8558,7.59067 13.4945,18.55497 4.6388,10.5426 4.6388,26.14565 0,30.36269 -22.772,45.96574 -22.3504,15.60305 -64.0991,15.60305 -29.0975,0 -45.544,-5.06045 -16.4464,-4.63874 -22.3503,-7.16897 l 7.169,-33.73632 q 6.7472,2.53022 21.5069,7.59067 14.7596,5.06045 39.2184,5.06045 z M 3804.288,343.77567 q 0,-29.09758 8.4341,-50.60448 8.4341,-21.92861 22.3503,-36.26655 13.9163,-14.33793 32.0495,-21.5069 18.1333,-7.16897 37.11,-7.16897 44.2789,0 67.8943,27.83247 23.6155,27.41076 23.6155,83.91909 0,2.53023 0,6.74727 0,3.79533 -0.4218,7.16897 h -150.1266 q 2.5302,34.15802 19.8201,51.86959 17.2899,17.71157 53.9781,17.71157 20.6635,0 34.5798,-3.37363 14.3379,-3.79534 21.5069,-7.16897 l 5.4821,32.89291 q -7.169,3.79534 -25.3022,8.01238 -17.7116,4.21704 -40.4836,4.21704 -28.6759,0 -49.7611,-8.43408 -20.6635,-8.85579 -34.158,-24.03713 -13.4945,-15.18135 -20.2418,-35.84484 -6.3256,-21.0852 -6.3256,-45.96574 z m 150.5484,-21.5069 q 0.4217,-26.56736 -13.4946,-43.43552 -13.4945,-17.28986 -37.5316,-17.28986 -13.4945,0 -24.0371,5.48215 -10.1209,5.06045 -17.2899,13.49453 -7.169,8.43408 -11.386,19.39838 -3.7954,10.96431 -5.0605,22.35032 z M 3749.0455,452.99701 H 3709.827 V 233.71092 h 39.2185 z m -19.8201,-258.92626 q -10.5426,0 -18.1333,-6.74727 -7.1689,-7.16897 -7.1689,-18.97668 0,-11.80771 7.1689,-18.55497 7.5907,-7.16897 18.1333,-7.16897 10.5426,0 17.7116,7.16897 7.5906,6.74726 7.5906,18.55497 0,11.80771 -7.5906,18.97668 -7.169,6.74727 -17.7116,6.74727 z M 3603.558,431.0684 q -5.0604,3.37363 -19.8201,8.85578 -14.3379,5.06045 -33.7363,5.06045 -19.8201,0 -37.5316,-6.32556 -17.2899,-6.32556 -30.3627,-19.39838 -13.0729,-13.49453 -20.6635,-33.31462 -7.5907,-19.82009 -7.5907,-47.23085 0,-24.03713 7.169,-43.85721 7.1689,-20.2418 20.6635,-34.57973 13.9162,-14.75964 33.7363,-22.77202 19.8201,-8.43408 44.7006,-8.43408 27.4108,0 47.6526,4.21704 20.6635,3.79534 34.5797,7.16897 v 195.67066 q 0,50.60448 -26.1457,73.3765 -26.1456,22.77201 -79.2803,22.77201 -20.6635,0 -39.2185,-3.37363 -18.1333,-3.37363 -31.6278,-8.01238 l 7.169,-34.15802 q 11.8077,4.63874 28.6759,8.01238 17.2898,3.79533 35.8448,3.79533 35.0014,0 50.1828,-13.91623 15.603,-13.91623 15.603,-44.27892 z m -0.4217,-162.77775 q -5.9038,-1.68681 -16.0247,-2.95193 -9.6992,-1.68681 -26.5674,-1.68681 -31.6278,0 -48.9177,20.6635 -16.8681,20.66349 -16.8681,54.82152 0,18.97668 4.6387,32.47121 5.0605,13.49452 13.0729,22.35031 8.434,8.85578 18.9766,13.07282 10.9643,4.21704 22.3503,4.21704 15.6031,0 28.6759,-4.21704 13.0728,-4.63874 20.6635,-10.5426 z m -379.1116,-28.25417 q 13.4945,-3.37363 35.8448,-7.16896 22.3503,-3.79534 51.4479,-3.79534 26.1456,0 43.4355,7.59067 17.2899,7.16897 27.4108,20.6635 10.5426,13.07282 14.7596,31.6278 4.217,18.55498 4.217,40.90529 v 123.13757 h -39.2184 V 338.29352 q 0,-20.24179 -2.952,-34.57973 -2.5302,-14.33794 -8.8558,-23.19372 -6.3255,-8.85579 -16.8681,-12.65112 -10.5426,-4.21704 -26.1457,-4.21704 -6.3255,0 -13.0728,0.4217 -6.7472,0.42171 -13.0728,1.26511 -5.9039,0.42171 -10.9643,1.26512 -4.6388,0.8434 -6.7473,1.26511 v 185.12806 h -39.2184 z m -67.472,212.96053 h -39.2185 V 233.71092 h 39.2185 z m -19.8201,-258.92626 q -10.5426,0 -18.1333,-6.74727 -7.1689,-7.16897 -7.1689,-18.97668 0,-11.80771 7.1689,-18.55497 7.5907,-7.16897 18.1333,-7.16897 10.5426,0 17.7116,7.16897 7.5906,6.74726 7.5906,18.55497 0,11.80771 -7.5906,18.97668 -7.169,6.74727 -17.7116,6.74727 z m -260.191,258.92626 V 132.50196 l 39.2185,-6.74726 v 112.17326 q 10.9643,-4.21704 23.1937,-6.32556 12.6511,-2.53022 24.8805,-2.53022 26.1457,0 43.4356,7.59067 17.2898,7.16897 27.4107,20.6635 10.5426,13.07282 14.7597,31.6278 4.217,18.55498 4.217,40.90529 v 123.13757 h -39.2185 V 338.29352 q 0,-20.24179 -2.9519,-34.57973 -2.5302,-14.33794 -8.8558,-23.19372 -6.3255,-8.85579 -16.8681,-12.65112 -10.5426,-4.21704 -26.1457,-4.21704 -6.3256,0 -13.0728,0.84341 -6.7473,0.8434 -13.0728,2.10852 -5.9039,0.8434 -10.9643,2.10852 -4.6388,1.26511 -6.7473,2.10852 v 182.17613 z m -40.483,-292.24088 v 35.42314 h -91.9315 v 256.81774 h -40.9053 V 196.17927 h -91.9314 v -35.42314 z m -432.2458,263.98671 q 24.0371,0 35.4231,-6.32556 11.8077,-6.32556 11.8077,-20.24179 0,-14.33794 -11.386,-22.77202 -11.386,-8.43408 -37.5316,-18.97668 -12.6512,-5.06045 -24.4589,-10.1209 -11.386,-5.48215 -19.8201,-12.65112 -8.434,-7.16896 -13.4945,-17.28986 -5.0604,-10.1209 -5.0604,-24.88054 0,-29.09757 21.5069,-45.96573 21.5069,-17.28987 58.6168,-17.28987 9.2775,0 18.555,1.26511 9.2775,0.84341 17.2899,2.53023 8.0123,1.26511 13.9162,2.95193 6.3256,1.68681 9.6992,2.95192 l -7.169,33.73632 q -6.3255,-3.37363 -19.8201,-6.74726 -13.4945,-3.79534 -32.4712,-3.79534 -16.4464,0 -28.6759,6.74727 -12.2294,6.32556 -12.2294,20.24179 0,7.16897 2.5303,12.65112 2.9519,5.48215 8.434,10.1209 5.9039,4.21704 14.338,8.01237 8.434,3.79534 20.2418,8.01238 15.603,5.90386 27.8324,11.80771 12.2294,5.48215 20.6635,13.07283 8.8558,7.59067 13.4946,18.55497 4.6387,10.5426 4.6387,26.14565 0,30.36269 -22.772,45.96574 -22.3503,15.60305 -64.099,15.60305 -29.0976,0 -45.5441,-5.06045 -16.4464,-4.63874 -22.3503,-7.16897 l 7.169,-33.73632 q 6.7473,2.53022 21.5069,7.59067 14.7596,5.06045 39.2185,5.06045 z M 2288.6879,132.50196 v 21.0852 q 0,20.6635 -2.5302,43.43552 -2.5302,22.35031 -6.3256,44.70062 h -23.1937 q -3.7953,-22.35031 -6.3256,-44.70062 -2.5302,-22.77202 -2.5302,-43.85722 v -20.6635 z m -185.9674,320.49505 q -11.8077,-30.36269 -25.3022,-69.15946 -13.0728,-39.21847 -24.0371,-81.38887 -10.9643,42.1704 -24.0372,81.38887 -13.0728,38.79677 -24.8805,69.15946 h -34.158 q -19.3984,-43.43551 -37.9534,-99.10044 -18.555,-55.66493 -35.0014,-120.18565 h 42.1704 q 4.217,19.82009 10.1209,43.01381 5.9038,23.19372 12.2294,46.38744 6.7473,23.19372 13.9162,44.70063 7.169,21.5069 13.4946,37.53166 7.1689,-19.82009 13.9162,-41.7487 7.169,-22.35031 13.4945,-44.70063 6.3256,-22.77201 11.8077,-44.27892 5.9039,-21.92861 10.1209,-40.90529 h 32.4712 q 3.7954,18.97668 9.2775,40.90529 5.4822,21.50691 11.8077,44.27892 6.3256,22.35032 13.0729,44.70063 7.1689,21.92861 14.3379,41.7487 6.3256,-16.02476 13.0728,-37.53166 7.169,-21.50691 13.9163,-44.70063 6.7472,-23.19372 12.6511,-46.38744 5.9038,-23.19372 10.1209,-43.01381 h 40.4836 q -16.4465,64.52072 -35.0015,120.18565 -18.555,55.66493 -37.9533,99.10044 z M 1782.642,424.74284 q 13.9162,0 24.4589,-0.4217 10.9643,-0.84341 18.1332,-2.53023 v -65.36412 q -4.217,-2.10852 -13.9162,-3.37363 -9.2775,-1.68682 -22.772,-1.68682 -8.8558,0 -18.9767,1.26511 -9.6992,1.26512 -18.1333,5.48216 -8.0124,3.79533 -13.4945,10.9643 -5.4822,6.74727 -5.4822,18.13327 0,21.0852 13.4946,29.51928 13.4945,8.01238 36.6882,8.01238 z m -3.3736,-196.51407 q 23.6154,0 39.6402,6.32556 16.4464,5.90386 26.1456,17.28987 10.1209,10.9643 14.3379,26.56735 4.2171,15.18134 4.2171,33.73632 v 137.0538 q -5.0605,0.84341 -14.3379,2.53023 -8.8558,1.26511 -20.2418,2.53022 -11.386,1.26511 -24.8806,2.10852 -13.0728,1.26511 -26.1456,1.26511 -18.555,0 -34.1581,-3.79533 -15.603,-3.79534 -26.989,-11.80771 -11.386,-8.43409 -17.7116,-21.92861 -6.3255,-13.49453 -6.3255,-32.47121 0,-18.13327 7.1689,-31.2061 7.5907,-13.07282 20.2418,-21.0852 12.6511,-8.01238 29.5193,-11.80771 16.8682,-3.79534 35.4231,-3.79534 5.9039,0 12.2295,0.84341 6.3255,0.4217 11.8077,1.68682 5.9038,0.8434 10.1209,1.68681 4.217,0.84341 5.9038,1.26511 v -10.9643 q 0,-9.69919 -2.1085,-18.97668 -2.1085,-9.69919 -7.5907,-16.86816 -5.4821,-7.59067 -15.1813,-11.80771 -9.2775,-4.63875 -24.4588,-4.63875 -19.3984,0 -34.1581,2.95193 -14.3379,2.53022 -21.5069,5.48215 l -4.6387,-32.47121 q 7.5907,-3.37363 25.3022,-6.32556 17.7116,-3.37363 38.3751,-3.37363 z m -120.1852,228.98528 q -36.2665,-0.84341 -51.4478,-15.60305 -15.1814,-14.75964 -15.1814,-45.96574 v -263.1433 l 39.2185,-6.74726 v 263.565 q 0,9.6992 1.6868,16.02476 1.6868,6.32556 5.4822,10.12089 3.7953,3.79534 10.1208,5.90386 6.3256,1.68681 15.6031,2.95193 z M 1460.4613,233.71092 h 83.0757 v 32.89292 h -83.0757 V 367.8128 q 0,16.44646 2.5302,27.41076 2.5303,10.5426 7.5907,16.86816 5.0605,5.90386 12.6511,8.43408 7.5907,2.53022 17.7116,2.53022 17.7116,0 28.2542,-3.79533 10.9643,-4.21704 15.1813,-5.90386 l 7.5907,32.47121 q -5.9039,2.95193 -20.6635,7.16897 -14.7597,4.63874 -33.7363,4.63874 -22.3503,0 -37.11,-5.48215 -14.3379,-5.90385 -23.1937,-17.28986 -8.8558,-11.38601 -12.6511,-27.83247 -3.3737,-16.86816 -3.3737,-38.79677 V 172.56384 l 39.2185,-6.74726 z m -182.5976,191.03192 q 13.9163,0 24.4589,-0.4217 10.9643,-0.84341 18.1332,-2.53023 v -65.36412 q -4.217,-2.10852 -13.9162,-3.37363 -9.2775,-1.68682 -22.772,-1.68682 -8.8558,0 -18.9767,1.26511 -9.6992,1.26512 -18.1333,5.48216 -8.0123,3.79533 -13.4945,10.9643 -5.4821,6.74727 -5.4821,18.13327 0,21.0852 13.4945,29.51928 13.4945,8.01238 36.6882,8.01238 z m -3.3736,-196.51407 q 23.6154,0 39.6402,6.32556 16.4464,5.90386 26.1456,17.28987 10.1209,10.9643 14.338,26.56735 4.217,15.18134 4.217,33.73632 v 137.0538 q -5.0605,0.84341 -14.3379,2.53023 -8.8558,1.26511 -20.2418,2.53022 -11.386,1.26511 -24.8806,2.10852 -13.0728,1.26511 -26.1456,1.26511 -18.555,0 -34.158,-3.79533 -15.6031,-3.79534 -26.9891,-11.80771 -11.386,-8.43409 -17.7116,-21.92861 -6.3255,-13.49453 -6.3255,-32.47121 0,-18.13327 7.1689,-31.2061 7.5907,-13.07282 20.2418,-21.0852 12.6512,-8.01238 29.5193,-11.80771 16.8682,-3.79534 35.4232,-3.79534 5.9038,0 12.2294,0.84341 6.3255,0.4217 11.8077,1.68682 5.9038,0.8434 10.1209,1.68681 4.217,0.84341 5.9038,1.26511 v -10.9643 q 0,-9.69919 -2.1085,-18.97668 -2.1085,-9.69919 -7.5907,-16.86816 -5.4821,-7.59067 -15.1813,-11.80771 -9.2775,-4.63875 -24.4588,-4.63875 -19.3984,0 -34.1581,2.95193 -14.3379,2.53022 -21.5069,5.48215 l -4.6387,-32.47121 q 7.5907,-3.37363 25.3022,-6.32556 17.7116,-3.37363 38.3751,-3.37363 z M 970.0205,412.51342 q -4.21704,-10.12089 -11.38601,-25.72394 -6.74727,-15.60305 -14.75964,-33.73632 -8.01238,-18.13327 -17.28987,-37.10995 -8.85578,-19.39839 -16.86816,-36.26655 -8.01237,-17.28986 -15.18134,-30.78439 -6.74727,-13.49453 -10.96431,-20.6635 -4.63874,49.76108 -7.59067,107.95623 -2.95193,57.77345 -5.06045,116.81201 h -40.06188 q 1.68682,-37.95336 3.79534,-76.32843 2.10852,-38.79677 4.63874,-75.90672 2.95193,-37.53166 5.90386,-72.95479 3.37363,-35.42314 7.16897,-67.05094 h 35.84484 q 11.38601,18.55498 24.45883,43.85722 13.07282,25.30224 26.14565,53.1347 13.07282,27.41076 25.30224,55.24323 12.22942,27.41076 22.35031,50.18278 10.1209,-22.77202 22.35035,-50.18278 12.2294,-27.83247 25.3022,-55.24323 13.0728,-27.83246 26.1457,-53.1347 13.0728,-25.30224 24.4588,-43.85722 h 35.8448 q 14.338,141.27084 21.5069,292.24088 h -40.0618 q -2.1086,-59.03856 -5.0605,-116.81201 -2.9519,-58.19515 -7.5907,-107.95623 -4.217,7.16897 -11.386,20.6635 -6.7472,13.49453 -14.7596,30.78439 -8.0124,16.86816 -17.2899,36.26655 -8.8558,18.97668 -16.8681,37.10995 -8.0124,18.13327 -15.1814,33.73632 -6.7473,15.60305 -10.9643,25.72394 z" /></svg>
