<?xml version="1.0" encoding="UTF-8" standalone="no"?><!DOCTYPE svg PUBLIC "-//W3C//DTD SVG 1.1//EN" "http://www.w3.org/Graphics/SVG/1.1/DTD/svg11.dtd"><svg width="100%" height="100%" viewBox="0 0 1010 158" version="1.1" xmlns="http://www.w3.org/2000/svg" xmlns:xlink="http://www.w3.org/1999/xlink" xml:space="preserve" xmlns:serif="http://www.serif.com/" style="fill-rule:evenodd;clip-rule:evenodd;stroke-linejoin:round;stroke-miterlimit:2;"><g transform="matrix(0.116045,0,0,0.116045,-7.89597,-8.03399)"><path id="path2" d="M750,81.75C1118.82,81.75 1418.25,381.183 1418.25,750C1418.25,1118.82 1118.82,1418.25 750,1418.25C381.183,1418.25 81.75,1118.82 81.75,750C81.75,381.183 381.183,81.75 750,81.75ZM750,142.561C1085.26,142.561 1357.44,414.745 1357.44,750C1357.44,1085.26 1085.26,1357.44 750,1357.44C414.745,1357.44 142.561,1085.26 142.561,750C142.561,414.745 414.745,142.561 750,142.561Z" style="fill:rgb(49,197,240);"/><path id="path4" d="M754.803,276.715C749.172,276.715 743.542,278.86 739.25,283.152L276.557,745.848C267.973,754.432 267.973,768.369 276.557,776.953L716.75,1217.15C725.334,1225.73 739.271,1225.73 747.855,1217.15L1190.1,774.904L1190.1,702.896L1172,684.797L1168.47,688.328L1127.96,647.822L1112.7,648.301L1106.53,642.131L968.639,780.021C960.061,788.598 946.135,788.598 937.557,780.021L717.576,560.041C708.999,551.463 708.999,537.537 717.576,528.959L866.869,379.666L852.648,365.445L849.266,368.828L808.73,328.293L793.801,328.801L788.4,323.4L799.646,312.443L770.355,283.152C766.063,278.86 760.433,276.715 754.803,276.715ZM744.6,321L730.949,355.199L726.783,349.498L712.83,363.449L702.166,352.785L715.986,338.965L710.1,334.801L744.6,321ZM992.572,550.291L864.092,678.771L927.729,742.408L1056.21,613.928L992.572,550.291ZM602.531,554.885C607.715,554.885 612.898,556.861 616.85,560.813L931.688,875.65C939.591,883.553 939.591,896.384 931.688,904.287L699.988,1135.99C692.085,1143.89 679.253,1143.89 671.35,1135.99L356.512,821.15C348.609,813.247 348.609,800.415 356.512,792.512L588.213,560.813C592.164,556.861 597.348,554.885 602.531,554.885ZM328.9,714.502L352.299,737.9L333.5,756.697L310.102,733.301L328.9,714.502ZM754.9,1140.35L778.299,1163.75L759.5,1182.55L736.102,1159.15L754.9,1140.35Z" style="fill:rgb(49,197,240);"/></g><g transform="matrix(0.239962,0,0,0.239962,0,0)"><path d="M4103.27,424.743C4119.3,424.743 4131.11,422.634 4138.7,418.417C4146.57,414.2 4150.51,407.453 4150.51,398.175C4150.51,388.617 4146.71,381.026 4139.12,375.403C4131.53,369.781 4119.02,363.455 4101.59,356.427C4093.16,353.053 4085,349.68 4077.13,346.306C4069.54,342.651 4062.93,338.434 4057.31,333.655C4051.69,328.875 4047.19,323.112 4043.82,316.365C4040.44,309.618 4038.76,301.324 4038.76,291.484C4038.76,272.086 4045.92,256.764 4060.26,245.519C4074.6,233.992 4094.14,228.229 4118.88,228.229C4125.06,228.229 4131.25,228.65 4137.43,229.494C4143.62,230.056 4149.38,230.9 4154.72,232.024C4160.07,232.868 4164.7,233.851 4168.64,234.976C4172.86,236.101 4176.09,237.085 4178.34,237.928L4171.17,271.664C4166.95,269.415 4160.35,267.166 4151.35,264.917C4142.35,262.387 4131.53,261.122 4118.88,261.122C4107.91,261.122 4098.36,263.371 4090.2,267.869C4082.05,272.086 4077.97,278.833 4077.97,288.111C4077.97,292.89 4078.82,297.107 4080.5,300.762C4082.47,304.417 4085.28,307.79 4088.94,310.883C4092.87,313.694 4097.65,316.365 4103.27,318.895C4108.9,321.425 4115.65,324.096 4123.52,326.908C4133.92,330.843 4143.2,334.779 4151.35,338.715C4159.5,342.37 4166.39,346.728 4172.01,351.788C4177.92,356.848 4182.41,363.033 4185.51,370.343C4188.6,377.371 4190.15,386.087 4190.15,396.489C4190.15,416.73 4182.56,432.052 4167.38,442.454C4152.47,452.856 4131.11,458.057 4103.27,458.057C4083.88,458.057 4068.7,456.371 4057.73,452.997C4046.77,449.905 4039.32,447.515 4035.38,445.828L4042.55,412.092C4047.05,413.779 4054.22,416.309 4064.06,419.682C4073.9,423.056 4086.97,424.743 4103.27,424.743ZM3804.29,343.776C3804.29,324.377 3807.1,307.509 3812.72,293.171C3818.35,278.552 3825.8,266.463 3835.07,256.905C3844.35,247.346 3855.03,240.177 3867.12,235.398C3879.21,230.618 3891.58,228.229 3904.23,228.229C3933.75,228.229 3956.38,237.506 3972.13,256.061C3987.87,274.335 3995.74,302.308 3995.74,339.98L3995.74,346.728C3995.74,349.258 3995.6,351.647 3995.32,353.897L3845.19,353.897C3846.88,376.669 3853.49,393.958 3865.01,405.766C3876.54,417.574 3894.53,423.478 3918.99,423.478C3932.77,423.478 3944.29,422.353 3953.57,420.104C3963.13,417.574 3970.3,415.184 3975.08,412.935L3980.56,445.828C3975.78,448.358 3967.35,451.029 3955.26,453.84C3943.45,456.652 3929.96,458.057 3914.77,458.057C3895.66,458.057 3879.07,455.246 3865.01,449.623C3851.24,443.72 3839.85,435.707 3830.86,425.586C3821.86,415.465 3815.11,403.517 3810.61,389.741C3806.4,375.685 3804.29,360.363 3804.29,343.776ZM3954.84,322.269C3955.12,304.557 3950.62,290.079 3941.34,278.833C3932.35,267.307 3919.84,261.543 3903.81,261.543C3894.81,261.543 3886.8,263.371 3879.77,267.026C3873.03,270.399 3867.26,274.897 3862.48,280.52C3857.7,286.143 3853.91,292.609 3851.1,299.918C3848.57,307.228 3846.88,314.678 3846.04,322.269L3954.84,322.269ZM3749.05,452.997L3709.83,452.997L3709.83,233.711L3749.05,233.711L3749.05,452.997ZM3729.22,194.071C3722.2,194.071 3716.15,191.822 3711.09,187.323C3706.31,182.544 3703.92,176.219 3703.92,168.347C3703.92,160.475 3706.31,154.29 3711.09,149.792C3716.15,145.013 3722.2,142.623 3729.22,142.623C3736.25,142.623 3742.16,145.013 3746.94,149.792C3752,154.29 3754.53,160.475 3754.53,168.347C3754.53,176.219 3752,182.544 3746.94,187.323C3742.16,191.822 3736.25,194.071 3729.22,194.071ZM3603.56,431.068C3600.18,433.317 3593.58,436.269 3583.74,439.924C3574.18,443.298 3562.93,444.985 3550,444.985C3536.79,444.985 3524.28,442.876 3512.47,438.659C3500.94,434.442 3490.82,427.976 3482.11,419.261C3473.39,410.264 3466.5,399.159 3461.44,385.946C3456.38,372.733 3453.85,356.989 3453.85,338.715C3453.85,322.69 3456.24,308.071 3461.02,294.858C3465.8,281.363 3472.69,269.837 3481.69,260.278C3490.96,250.439 3502.21,242.848 3515.42,237.506C3528.64,231.884 3543.54,229.072 3560.12,229.072C3578.4,229.072 3594.28,230.478 3607.78,233.289C3621.55,235.819 3633.08,238.209 3642.36,240.458L3642.36,436.129C3642.36,469.865 3633.64,494.324 3616.21,509.505C3598.78,524.687 3572.35,532.277 3536.93,532.277C3523.15,532.277 3510.08,531.153 3497.71,528.904C3485.62,526.655 3475.08,523.984 3466.08,520.891L3473.25,486.733C3481.12,489.826 3490.68,492.497 3501.93,494.746C3513.45,497.276 3525.4,498.541 3537.77,498.541C3561.11,498.541 3577.83,493.902 3587.95,484.625C3598.36,475.347 3603.56,460.588 3603.56,440.346L3603.56,431.068ZM3603.14,268.291C3599.2,267.166 3593.86,266.182 3587.11,265.339C3580.64,264.214 3571.79,263.652 3560.54,263.652C3539.46,263.652 3523.15,270.54 3511.63,284.315C3500.38,298.091 3494.76,316.365 3494.76,339.137C3494.76,351.788 3496.31,362.612 3499.4,371.608C3502.77,380.604 3507.13,388.055 3512.47,393.958C3518.09,399.862 3524.42,404.22 3531.45,407.031C3538.76,409.843 3546.21,411.248 3553.8,411.248C3564.2,411.248 3573.76,409.843 3582.47,407.031C3591.19,403.939 3598.08,400.425 3603.14,396.489L3603.14,268.291ZM3224.03,240.036C3233.02,237.787 3244.97,235.398 3259.87,232.868C3274.77,230.337 3291.92,229.072 3311.32,229.072C3328.75,229.072 3343.23,231.602 3354.75,236.663C3366.28,241.442 3375.42,248.33 3382.16,257.326C3389.19,266.042 3394.11,276.584 3396.92,288.954C3399.74,301.324 3401.14,314.959 3401.14,329.859L3401.14,452.997L3361.92,452.997L3361.92,338.294C3361.92,324.799 3360.94,313.272 3358.97,303.714C3357.28,294.155 3354.33,286.424 3350.11,280.52C3345.9,274.616 3340.27,270.399 3333.25,267.869C3326.22,265.058 3317.5,263.652 3307.1,263.652C3302.88,263.652 3298.53,263.792 3294.03,264.074C3289.53,264.355 3285.17,264.776 3280.95,265.339C3277.02,265.62 3273.36,266.042 3269.99,266.604C3266.9,267.166 3264.65,267.588 3263.24,267.869L3263.24,452.997L3224.03,452.997L3224.03,240.036ZM3156.55,452.997L3117.33,452.997L3117.33,233.711L3156.55,233.711L3156.55,452.997ZM3136.73,194.071C3129.7,194.071 3123.66,191.822 3118.6,187.323C3113.82,182.544 3111.43,176.219 3111.43,168.347C3111.43,160.475 3113.82,154.29 3118.6,149.792C3123.66,145.013 3129.7,142.623 3136.73,142.623C3143.76,142.623 3149.66,145.013 3154.44,149.792C3159.51,154.29 3162.03,160.475 3162.03,168.347C3162.03,176.219 3159.51,182.544 3154.44,187.323C3149.66,191.822 3143.76,194.071 3136.73,194.071ZM2876.54,452.997L2876.54,132.502L2915.76,125.755L2915.76,237.928C2923.07,235.117 2930.8,233.008 2938.95,231.602C2947.39,229.916 2955.68,229.072 2963.83,229.072C2981.26,229.072 2995.74,231.602 3007.27,236.663C3018.8,241.442 3027.93,248.33 3034.68,257.326C3041.71,266.042 3046.63,276.584 3049.44,288.954C3052.25,301.324 3053.66,314.959 3053.66,329.859L3053.66,452.997L3014.44,452.997L3014.44,338.294C3014.44,324.799 3013.45,313.272 3011.49,303.714C3009.8,294.155 3006.85,286.424 3002.63,280.52C2998.41,274.616 2992.79,270.399 2985.76,267.869C2978.74,265.058 2970.02,263.652 2959.62,263.652C2955.4,263.652 2951.04,263.933 2946.55,264.495C2942.05,265.058 2937.69,265.76 2933.47,266.604C2929.54,267.166 2925.88,267.869 2922.51,268.712C2919.41,269.556 2917.17,270.259 2915.76,270.821L2915.76,452.997L2876.54,452.997ZM2836.06,160.756L2836.06,196.179L2744.13,196.179L2744.13,452.997L2703.22,452.997L2703.22,196.179L2611.29,196.179L2611.29,160.756L2836.06,160.756ZM2403.81,424.743C2419.84,424.743 2431.64,422.634 2439.24,418.417C2447.11,414.2 2451.04,407.453 2451.04,398.175C2451.04,388.617 2447.25,381.026 2439.66,375.403C2432.07,369.781 2419.56,363.455 2402.13,356.427C2393.69,353.053 2385.54,349.68 2377.67,346.306C2370.08,342.651 2363.47,338.434 2357.85,333.655C2352.22,328.875 2347.73,323.112 2344.35,316.365C2340.98,309.618 2339.29,301.324 2339.29,291.484C2339.29,272.086 2346.46,256.764 2360.8,245.519C2375.14,233.992 2394.68,228.229 2419.42,228.229C2425.6,228.229 2431.79,228.65 2437.97,229.494C2444.16,230.056 2449.92,230.9 2455.26,232.024C2460.6,232.868 2465.24,233.851 2469.18,234.976C2473.39,236.101 2476.63,237.085 2478.88,237.928L2471.71,271.664C2467.49,269.415 2460.88,267.166 2451.89,264.917C2442.89,262.387 2432.07,261.122 2419.42,261.122C2408.45,261.122 2398.89,263.371 2390.74,267.869C2382.59,272.086 2378.51,278.833 2378.51,288.111C2378.51,292.89 2379.35,297.107 2381.04,300.762C2383.01,304.417 2385.82,307.79 2389.47,310.883C2393.41,313.694 2398.19,316.365 2403.81,318.895C2409.43,321.425 2416.18,324.096 2424.05,326.908C2434.46,330.843 2443.73,334.779 2451.89,338.715C2460.04,342.37 2466.93,346.728 2472.55,351.788C2478.45,356.848 2482.95,363.033 2486.05,370.343C2489.14,377.371 2490.68,386.087 2490.68,396.489C2490.68,416.73 2483.09,432.052 2467.91,442.454C2453.01,452.856 2431.64,458.057 2403.81,458.057C2384.41,458.057 2369.23,456.371 2358.27,452.997C2347.3,449.905 2339.85,447.515 2335.92,445.828L2343.09,412.092C2347.59,413.779 2354.76,416.309 2364.59,419.682C2374.43,423.056 2387.51,424.743 2403.81,424.743ZM2288.69,132.502L2288.69,153.587C2288.69,167.363 2287.84,181.841 2286.16,197.023C2284.47,211.923 2282.36,226.823 2279.83,241.723L2256.64,241.723C2254.11,226.823 2252,211.923 2250.31,197.023C2248.63,181.841 2247.78,167.222 2247.78,153.165L2247.78,132.502L2288.69,132.502ZM2102.72,452.997C2094.85,432.755 2086.41,409.702 2077.42,383.838C2068.7,357.692 2060.69,330.562 2053.38,302.449C2046.07,330.562 2038.06,357.692 2029.34,383.838C2020.63,409.702 2012.34,432.755 2004.46,452.997L1970.31,452.997C1957.37,424.04 1944.72,391.007 1932.35,353.897C1919.98,316.787 1908.32,276.725 1897.35,233.711L1939.52,233.711C1942.33,246.924 1945.71,261.262 1949.64,276.725C1953.58,292.187 1957.65,307.65 1961.87,323.112C1966.37,338.575 1971.01,353.475 1975.79,367.813C1980.57,382.151 1985.07,394.661 1989.28,405.344C1994.06,392.131 1998.7,378.215 2003.2,363.596C2007.98,348.696 2012.48,333.795 2016.69,318.895C2020.91,303.714 2024.85,288.954 2028.5,274.616C2032.44,259.997 2035.81,246.362 2038.62,233.711L2071.09,233.711C2073.62,246.362 2076.72,259.997 2080.37,274.616C2084.03,288.954 2087.96,303.714 2092.18,318.895C2096.39,333.795 2100.75,348.696 2105.25,363.596C2110.03,378.215 2114.81,392.131 2119.59,405.344C2123.81,394.661 2128.16,382.151 2132.66,367.813C2137.44,353.475 2142.08,338.575 2146.58,323.112C2151.08,307.65 2155.29,292.187 2159.23,276.725C2163.16,261.262 2166.54,246.924 2169.35,233.711L2209.83,233.711C2198.87,276.725 2187.2,316.787 2174.83,353.897C2162.46,391.007 2149.81,424.04 2136.88,452.997L2102.72,452.997ZM1782.64,424.743C1791.92,424.743 1800.07,424.602 1807.1,424.321C1814.41,423.759 1820.45,422.915 1825.23,421.791L1825.23,356.427C1822.42,355.021 1817.78,353.897 1811.32,353.053C1805.13,351.929 1797.54,351.366 1788.55,351.366C1782.64,351.366 1776.32,351.788 1769.57,352.631C1763.1,353.475 1757.06,355.302 1751.44,358.114C1746.09,360.644 1741.6,364.299 1737.94,369.078C1734.29,373.576 1732.46,379.621 1732.46,387.211C1732.46,401.268 1736.96,411.108 1745.95,416.73C1754.95,422.072 1767.18,424.743 1782.64,424.743ZM1779.27,228.229C1795.01,228.229 1808.23,230.337 1818.91,234.554C1829.87,238.49 1838.59,244.254 1845.05,251.844C1851.8,259.154 1856.58,268.01 1859.39,278.412C1862.2,288.532 1863.61,299.778 1863.61,312.148L1863.61,449.202C1860.24,449.764 1855.46,450.607 1849.27,451.732C1843.37,452.575 1836.62,453.419 1829.03,454.262C1821.44,455.106 1813.14,455.808 1804.15,456.371C1795.43,457.214 1786.72,457.636 1778,457.636C1765.63,457.636 1754.25,456.371 1743.85,453.84C1733.44,451.31 1724.45,447.374 1716.86,442.033C1709.27,436.41 1703.36,429.1 1699.14,420.104C1694.93,411.108 1692.82,400.284 1692.82,387.633C1692.82,375.544 1695.21,365.142 1699.99,356.427C1705.05,347.712 1711.8,340.683 1720.23,335.342C1728.66,330 1738.5,326.064 1749.75,323.534C1761,321.004 1772.8,319.739 1785.17,319.739C1789.11,319.739 1793.18,320.02 1797.4,320.582C1801.62,320.863 1805.56,321.425 1809.21,322.269C1813.14,322.831 1816.52,323.393 1819.33,323.956C1822.14,324.518 1824.11,324.94 1825.23,325.221L1825.23,314.256C1825.23,307.79 1824.53,301.465 1823.13,295.28C1821.72,288.814 1819.19,283.191 1815.54,278.412C1811.88,273.351 1806.82,269.415 1800.35,266.604C1794.17,263.511 1786.02,261.965 1775.89,261.965C1762.96,261.965 1751.58,262.949 1741.74,264.917C1732.18,266.604 1725.01,268.431 1720.23,270.399L1715.59,237.928C1720.65,235.679 1729.09,233.57 1740.89,231.602C1752.7,229.353 1765.49,228.229 1779.27,228.229ZM1659.08,457.214C1634.91,456.652 1617.76,451.451 1607.63,441.611C1597.51,431.771 1592.45,416.449 1592.45,395.645L1592.45,132.502L1631.67,125.755L1631.67,389.32C1631.67,395.786 1632.24,401.127 1633.36,405.344C1634.48,409.562 1636.31,412.935 1638.84,415.465C1641.37,417.996 1644.75,419.964 1648.96,421.369C1653.18,422.494 1658.38,423.478 1664.57,424.321L1659.08,457.214ZM1460.46,233.711L1543.54,233.711L1543.54,266.604L1460.46,266.604L1460.46,367.813C1460.46,378.777 1461.31,387.914 1462.99,395.224C1464.68,402.252 1467.21,407.875 1470.58,412.092C1473.96,416.028 1478.17,418.839 1483.23,420.526C1488.29,422.213 1494.2,423.056 1500.94,423.056C1512.75,423.056 1522.17,421.791 1529.2,419.261C1536.51,416.449 1541.57,414.481 1544.38,413.357L1551.97,445.828C1548.04,447.796 1541.15,450.186 1531.31,452.997C1521.47,456.09 1510.22,457.636 1497.57,457.636C1482.67,457.636 1470.3,455.808 1460.46,452.154C1450.9,448.218 1443.17,442.454 1437.27,434.864C1431.36,427.273 1427.15,417.996 1424.62,407.031C1422.37,395.786 1421.24,382.854 1421.24,368.234L1421.24,172.564L1460.46,165.817L1460.46,233.711ZM1277.86,424.743C1287.14,424.743 1295.29,424.602 1302.32,424.321C1309.63,423.759 1315.68,422.915 1320.46,421.791L1320.46,356.427C1317.64,355.021 1313.01,353.897 1306.54,353.053C1300.36,351.929 1292.76,351.366 1283.77,351.366C1277.86,351.366 1271.54,351.788 1264.79,352.631C1258.33,353.475 1252.28,355.302 1246.66,358.114C1241.32,360.644 1236.82,364.299 1233.16,369.078C1229.51,373.576 1227.68,379.621 1227.68,387.211C1227.68,401.268 1232.18,411.108 1241.18,416.73C1250.17,422.072 1262.4,424.743 1277.86,424.743ZM1274.49,228.229C1290.23,228.229 1303.45,230.337 1314.13,234.554C1325.1,238.49 1333.81,244.254 1340.28,251.844C1347.02,259.154 1351.8,268.01 1354.61,278.412C1357.42,288.532 1358.83,299.778 1358.83,312.148L1358.83,449.202C1355.46,449.764 1350.68,450.607 1344.49,451.732C1338.59,452.575 1331.84,453.419 1324.25,454.262C1316.66,455.106 1308.37,455.808 1299.37,456.371C1290.65,457.214 1281.94,457.636 1273.23,457.636C1260.86,457.636 1249.47,456.371 1239.07,453.84C1228.66,451.31 1219.67,447.374 1212.08,442.033C1204.49,436.41 1198.58,429.1 1194.37,420.104C1190.15,411.108 1188.04,400.284 1188.04,387.633C1188.04,375.544 1190.43,365.142 1195.21,356.427C1200.27,347.712 1207.02,340.683 1215.45,335.342C1223.89,330 1233.73,326.064 1244.97,323.534C1256.22,321.004 1268.02,319.739 1280.39,319.739C1284.33,319.739 1288.41,320.02 1292.62,320.582C1296.84,320.863 1300.78,321.425 1304.43,322.269C1308.37,322.831 1311.74,323.393 1314.55,323.956C1317.36,324.518 1319.33,324.94 1320.46,325.221L1320.46,314.256C1320.46,307.79 1319.75,301.465 1318.35,295.28C1316.94,288.814 1314.41,283.191 1310.76,278.412C1307.1,273.351 1302.04,269.415 1295.58,266.604C1289.39,263.511 1281.24,261.965 1271.12,261.965C1258.18,261.965 1246.8,262.949 1236.96,264.917C1227.4,266.604 1220.23,268.431 1215.45,270.399L1210.81,237.928C1215.87,235.679 1224.31,233.57 1236.12,231.602C1247.92,229.353 1260.71,228.229 1274.49,228.229ZM970.021,412.513C967.209,405.766 963.414,397.192 958.634,386.789C954.136,376.387 949.216,365.142 943.875,353.053C938.533,340.964 932.77,328.594 926.585,315.943C920.681,303.011 915.058,290.922 909.717,279.677C904.375,268.15 899.315,257.889 894.535,248.892C890.037,239.896 886.383,233.008 883.571,228.229C880.479,261.403 877.948,297.388 875.981,336.185C874.013,374.701 872.326,413.638 870.92,452.997L830.858,452.997C831.983,427.695 833.248,402.252 834.654,376.669C836.059,350.804 837.605,325.502 839.292,300.762C841.26,275.741 843.228,251.422 845.196,227.807C847.445,204.192 849.835,181.841 852.365,160.756L888.21,160.756C895.801,173.126 903.954,187.745 912.669,204.613C921.384,221.482 930.099,239.193 938.814,257.748C947.53,276.022 955.964,294.436 964.117,312.991C972.27,331.265 979.72,347.993 986.467,363.174C993.214,347.993 1000.66,331.265 1008.82,312.991C1016.97,294.436 1025.4,276.022 1034.12,257.748C1042.84,239.193 1051.55,221.482 1060.27,204.613C1068.98,187.745 1077.13,173.126 1084.72,160.756L1120.57,160.756C1130.13,254.937 1137.3,352.35 1142.08,452.997L1102.01,452.997C1100.61,413.638 1098.92,374.701 1096.95,336.185C1094.99,297.388 1092.45,261.403 1089.36,228.229C1086.55,233.008 1082.76,239.896 1077.98,248.892C1073.48,257.889 1068.56,268.15 1063.22,279.677C1057.88,290.922 1052.11,303.011 1045.93,315.943C1040.02,328.594 1034.4,340.964 1029.06,353.053C1023.72,365.142 1018.66,376.387 1013.88,386.789C1009.38,397.192 1005.73,405.766 1002.91,412.513L970.021,412.513Z" style="fill:white;"/></g></svg>