<?xml version="1.0" encoding="UTF-8" standalone="no"?><!DOCTYPE svg PUBLIC "-//W3C//DTD SVG 1.1//EN" "http://www.w3.org/Graphics/SVG/1.1/DTD/svg11.dtd"><svg width="100%" height="100%" viewBox="0 0 4209 659" version="1.1" xmlns="http://www.w3.org/2000/svg" xmlns:xlink="http://www.w3.org/1999/xlink" xml:space="preserve" xmlns:serif="http://www.serif.com/" style="fill-rule:evenodd;clip-rule:evenodd;stroke-linejoin:round;stroke-miterlimit:2;"><g><path id="path2" d="M329.743,6.053c178.331,-0 323.114,144.782 323.114,323.114c-0,178.331 -144.783,323.113 -323.114,323.113c-178.331,0 -323.114,-144.782 -323.114,-323.113c0,-178.332 144.783,-323.114 323.114,-323.114Zm0,29.403c162.103,0 293.71,131.607 293.71,293.711c0,162.103 -131.607,293.71 -293.71,293.71c-162.103,-0 -293.71,-131.607 -293.71,-293.71c-0,-162.104 131.607,-293.711 293.71,-293.711Z" style="fill:#31c5f0;"/><path id="path4" d="M332.065,100.323c-2.722,-0 -5.444,1.037 -7.52,3.112l-223.722,223.724c-4.151,4.15 -4.151,10.89 -0,15.04l212.843,212.843c4.151,4.151 10.89,4.151 15.04,0l213.835,-213.834l0,-34.817l-8.752,-8.751l-1.707,1.707l-19.585,-19.586l-7.381,0.232l-2.983,-2.983l-66.673,66.673c-4.148,4.147 -10.881,4.147 -15.029,-0l-106.365,-106.366c-4.148,-4.147 -4.148,-10.881 -0,-15.029l72.186,-72.186l-6.876,-6.876l-1.636,1.636l-19.599,-19.6l-7.219,0.246l-2.611,-2.612l5.437,-5.298l-14.163,-14.163c-2.075,-2.075 -4.797,-3.112 -7.52,-3.112Zm-4.933,21.413l-6.6,16.536l-2.015,-2.757l-6.746,6.746l-5.157,-5.157l6.683,-6.682l-2.847,-2.013l16.682,-6.673Zm119.9,110.867l-62.123,62.123l30.77,30.77l62.124,-62.123l-30.771,-30.77Zm-188.593,2.221c2.506,0 5.012,0.956 6.923,2.866l152.231,152.231c3.821,3.822 3.821,10.026 0,13.847l-112.032,112.033c-3.821,3.821 -10.026,3.821 -13.847,-0l-152.231,-152.232c-3.821,-3.821 -3.821,-10.026 -0,-13.847l112.032,-112.032c1.911,-1.91 4.417,-2.866 6.924,-2.866Zm-132.307,77.179l11.314,11.313l-9.09,9.089l-11.314,-11.313l9.09,-9.089Zm205.981,205.907l11.313,11.314l-9.089,9.09l-11.314,-11.314l9.09,-9.09Z" style="fill:#31c5f0;"/></g><text x="802.604px" y="452.997px" style="font-family:'Ubuntu', sans-serif;font-size:421.704px;fill:#fff;">Matla<tspan x="1889.76px 2217.42px " y="452.997px 452.997px ">w&apos;</tspan>s Thingies</text></svg>