<?xml version="1.0" encoding="UTF-8" standalone="no"?><!DOCTYPE svg PUBLIC "-//W3C//DTD SVG 1.1//EN" "http://www.w3.org/Graphics/SVG/1.1/DTD/svg11.dtd"><svg width="100%" height="100%" viewBox="0 0 15209 2380" version="1.1" xmlns="http://www.w3.org/2000/svg" xmlns:xlink="http://www.w3.org/1999/xlink" xml:space="preserve" xmlns:serif="http://www.serif.com/" style="fill-rule:evenodd;clip-rule:evenodd;stroke-linejoin:round;stroke-miterlimit:2;"><g><path id="path2" d="M1191.67,21.875c644.475,0 1167.71,523.233 1167.71,1167.71c0,644.476 -523.233,1167.71 -1167.71,1167.71c-644.476,-0 -1167.71,-523.233 -1167.71,-1167.71c0,-644.475 523.233,-1167.71 1167.71,-1167.71Zm-0,106.262c585.828,-0 1061.45,475.618 1061.45,1061.45c0,585.829 -475.618,1061.45 -1061.45,1061.45c-585.829,-0 -1061.45,-475.618 -1061.45,-1061.45c0,-585.828 475.618,-1061.45 1061.45,-1061.45Z" style="fill:#31c5f0;"/><path id="path4" d="M1200.06,362.559c-9.839,-0 -19.677,3.749 -27.177,11.249l-808.516,808.519c-15,15 -15,39.355 -0,54.355l769.199,769.199c15,15 39.355,15 54.354,-0l772.783,-772.78l0,-125.827l-31.627,-31.627l-6.171,6.17l-70.78,-70.78l-26.672,0.836l-10.782,-10.782l-240.951,240.952c-14.99,14.988 -39.324,14.988 -54.314,0l-384.396,-384.396c-14.988,-14.99 -14.988,-39.324 -0,-54.313l260.876,-260.877l-24.849,-24.849l-5.911,5.911l-70.832,-70.832l-26.088,0.888l-9.437,-9.437l19.652,-19.147l-51.184,-51.183c-7.5,-7.5 -17.338,-11.249 -27.177,-11.249Zm-17.829,77.384l-23.853,59.761l-7.28,-9.963l-24.382,24.379l-18.634,-18.635l24.15,-24.15l-10.287,-7.276l60.286,-24.116Zm433.31,400.666l-224.508,224.509l111.2,111.199l224.511,-224.508l-111.203,-111.2Zm-681.562,8.028c9.058,-0 18.115,3.453 25.02,10.358l550.152,550.151c13.809,13.81 13.809,36.231 -0,50.041l-404.874,404.877c-13.81,13.81 -36.234,13.81 -50.044,0l-550.152,-550.152c-13.809,-13.809 -13.809,-36.233 0,-50.043l404.878,-404.874c6.905,-6.905 15.962,-10.358 25.02,-10.358Zm-478.146,278.917l40.887,40.886l-32.85,32.846l-40.886,-40.883l32.849,-32.849Zm744.398,744.135l40.886,40.886l-32.849,32.849l-40.887,-40.886l32.85,-32.849Z" style="fill:#31c5f0;"/></g><text x="3250.55px" y="1637.1px" style="font-family:'Ubuntu', sans-serif;font-size:1524.01px;fill:#fff;">Klamoty Matla<tspan x="13283.1px 14467.2px " y="1637.1px 1637.1px ">wa</tspan></text></svg>