<?xml version="1.0" encoding="UTF-8" standalone="no"?>
<!DOCTYPE svg PUBLIC "-//W3C//DTD SVG 1.1//EN" "http://www.w3.org/Graphics/SVG/1.1/DTD/svg11.dtd">
<svg width="100%" height="100%" viewBox="0 0 36 36" version="1.1" xmlns="http://www.w3.org/2000/svg" xmlns:xlink="http://www.w3.org/1999/xlink" xml:space="preserve" xmlns:serif="http://www.serif.com/" style="fill-rule:evenodd;clip-rule:evenodd;stroke-linejoin:round;stroke-miterlimit:2;">
    <g transform="matrix(0.75,0,0,0.75,0,0)">
        <path d="M36,22C36,24.209 34.209,26 32,26L4,26C1.791,26 0,24.209 0,22L0,4C0,1.791 1.791,0 4,0L32,0C34.209,0 36,1.791 36,4L36,22Z" style="fill:rgb(204,214,221);fill-rule:nonzero;"/>
        <rect x="4" y="4" width="28" height="18" style="fill:rgb(93,173,236);fill-rule:nonzero;"/>
        <rect x="13" y="26" width="10" height="6" style="fill:rgb(204,214,221);fill-rule:nonzero;"/>
        <rect x="13" y="26" width="10" height="2" style="fill:rgb(154,170,180);fill-rule:nonzero;"/>
        <path d="M36,33C36,31.343 34.657,30 33,30L3,30C1.343,30 0,31.343 0,33C0,34.657 1.343,36 3,36L33,36C34.657,36 36,34.657 36,33Z" style="fill:rgb(225,232,237);fill-rule:nonzero;"/>
        <path d="M3,32L5,32L5,34L3,34L3,32ZM7,32L9,32L9,34L7,34L7,32ZM11,32L13,32L13,34L11,34L11,32ZM15,32L17,32L17,34L15,34L15,32ZM19,32L21,32L21,34L19,34L19,32ZM23,32L25,32L25,34L23,34L23,32ZM27,32L29,32L29,34L27,34L27,32ZM31,32L33,32L33,34L31,34L31,32Z" style="fill:rgb(245,248,250);fill-rule:nonzero;"/>
    </g>
    <g transform="matrix(0.75,0,0,0.75,9,8.5)">
        <path d="M34,29.096C33.583,28.133 33.104,27.088 32,27.088L31,27.088C32.104,27.088 33,26.189 33,25.08L33,8.008C33,6.899 32.104,6 31,6L5,6C3.896,6 3,6.899 3,8.008L3,25.08C3,26.189 3.896,27.088 5,27.088L4,27.088C2.896,27.088 2.333,28.092 2,29.096L0,33.991C0,35.101 0.896,36 2,36L34,36C35.104,36 36,35.101 36,33.992L34,29.096Z" style="fill:rgb(204,214,221);fill-rule:nonzero;"/>
        <path d="M0.008,34.075L0.014,34.132L0.184,34.824C0.5,35.516 1.192,36 2,36L34,36C35.076,36 35.947,35.145 35.992,34.075L0.008,34.075Z" style="fill:rgb(154,170,180);fill-rule:nonzero;"/>
        <path d="M31,24.075C31,24.63 30.553,25.079 30,25.079L6,25.079C5.448,25.079 5,24.63 5,24.075L5,9.013C5,8.458 5.448,8.009 6,8.009L30,8.009C30.553,8.009 31,8.459 31,9.013L31,24.075Z" style="fill:rgb(93,173,236);fill-rule:nonzero;"/>
        <path d="M32.906,31.042L32.146,28.867C31.907,28.407 31.511,28.03 30.958,28.03L5.11,28.03C4.558,28.03 4.204,28.438 3.954,29.066L3.266,31.043C3.047,31.639 3.714,32.047 4.266,32.047L11.844,32.047C11.844,32.047 12.781,32 12.947,31.439C13.139,30.791 13.362,29.815 13.41,29.643C13.484,29.379 13.798,29.112 14.266,29.112L22.844,29.112C23.344,29.112 23.59,29.365 23.655,29.678C23.697,29.882 23.967,30.819 24.093,31.46C24.204,32.031 25.314,32.046 25.314,32.046L31.908,32.046C32.459,32.046 33.125,31.575 32.906,31.042Z" style="fill:rgb(174,187,193);fill-rule:nonzero;"/>
        <path d="M22.375,33.113L14.594,33.113C14.219,33.113 14.056,32.77 14.11,32.438C14.164,32.107 14.469,30.645 14.493,30.475C14.516,30.304 14.767,30.1 15.017,30.1L22.032,30.1C22.329,30.1 22.522,30.263 22.582,30.589C22.641,30.916 22.884,32.23 22.903,32.53C22.922,32.831 22.734,33.113 22.375,33.113Z" style="fill:rgb(154,170,180);fill-rule:nonzero;"/>
    </g>
</svg>
