<?xml version="1.0" encoding="UTF-8" standalone="no"?>
<!DOCTYPE svg PUBLIC "-//W3C//DTD SVG 1.1//EN" "http://www.w3.org/Graphics/SVG/1.1/DTD/svg11.dtd">
<svg width="100%" height="100%" viewBox="0 0 88 31" version="1.1" xmlns="http://www.w3.org/2000/svg" xmlns:xlink="http://www.w3.org/1999/xlink" xml:space="preserve" xmlns:serif="http://www.serif.com/" style="fill-rule:evenodd;clip-rule:evenodd;stroke-miterlimit:3.86;">
    <g>
        <g transform="matrix(2.24087,0,0,3.64694,-12.3852,-11.8698)">
            <rect x="5.527" y="3.255" width="16.427" height="8.5" style="fill:white;"/>
        </g>
        <g transform="matrix(2.8119,0,0,3.64694,21.2688,-11.8698)">
            <rect x="5.527" y="3.255" width="16.427" height="8.5" style="fill:rgb(178,205,224);"/>
        </g>
        <g transform="matrix(0.23951,0,0,3.9167,65.4627,-9.58235)">
            <rect x="69.046" y="2.702" width="4.175" height="7.66" style="fill:rgb(89,94,98);"/>
        </g>
        <g transform="matrix(0.23951,0,0,4.04726,-16.5373,-10.9351)">
            <rect x="69.046" y="2.702" width="4.175" height="7.66" style="fill:rgb(204,204,204);"/>
        </g>
        <g transform="matrix(0.23951,0,0,3.7858,64.4627,-9.22869)">
            <rect x="69.046" y="2.702" width="4.175" height="7.66" style="fill:rgb(137,142,150);"/>
        </g>
        <g transform="matrix(0.23951,0,0,3.7858,63.4627,-9.22869)">
            <rect x="69.046" y="2.702" width="4.175" height="7.66" style="fill:rgb(153,161,170);"/>
        </g>
        <g transform="matrix(1.25063,0,0,0.5,-0.250631,27.8485)">
            <rect x="1" y="4.298" width="65.567" height="2.005" style="fill:rgb(75,75,76);"/>
        </g>
        <g transform="matrix(1.26588,0,0,0.5,-1.26588,-2.14894)">
            <rect x="1" y="4.298" width="65.567" height="2.005" style="fill:rgb(204,204,204);"/>
        </g>
        <g transform="matrix(0.658717,0,0,0.5,36.1513,26.8459)">
            <rect x="1" y="4.298" width="65.567" height="2.005" style="fill:rgb(144,151,160);"/>
        </g>
        <g transform="matrix(0.530908,0,0,0.5,1.46909,26.8459)">
            <rect x="1" y="4.298" width="65.567" height="2.005" style="fill:rgb(180,180,180);"/>
        </g>
        <path d="M68.27,18.85L74.29,24.35L86,12.64" style="fill:none;fill-rule:nonzero;stroke:rgb(0,90,156);stroke-width:4.81px;"/>
        <g transform="matrix(1,0,0,1,0,0.465)">
            <path d="M45.77,18.32C45.42,18.5 45.06,18.63 44.69,18.73C44.31,18.82 43.92,18.87 43.52,18.87C42.31,18.87 41.34,18.53 40.63,17.85C39.92,17.17 39.57,16.25 39.57,15.09C39.57,13.93 39.92,13 40.63,12.33C41.34,11.65 42.3,11.31 43.52,11.31C43.93,11.31 44.32,11.36 44.69,11.45C45.06,11.54 45.42,11.68 45.77,11.86L45.77,13.37C45.42,13.13 45.08,12.96 44.74,12.85C44.4,12.74 44.04,12.68 43.67,12.68C43,12.68 42.47,12.9 42.09,13.33C41.71,13.76 41.51,14.35 41.51,15.11C41.51,15.86 41.7,16.45 42.09,16.88C42.47,17.31 43,17.53 43.67,17.53C44.04,17.53 44.4,17.47 44.74,17.36C45.08,17.25 45.42,17.08 45.77,16.84L45.77,18.35L45.77,18.32ZM52.5,11.66L52.5,13.2C52.1,13.02 51.71,12.89 51.33,12.79C50.977,12.702 50.614,12.655 50.25,12.65C49.8,12.65 49.47,12.71 49.25,12.84C49.03,12.97 48.93,13.16 48.93,13.42C48.93,13.62 49,13.77 49.14,13.88C49.29,13.99 49.55,14.08 49.93,14.16L50.73,14.32C51.54,14.48 52.12,14.73 52.46,15.06C52.8,15.39 52.97,15.86 52.97,16.48C52.97,17.28 52.73,17.88 52.25,18.28C51.77,18.67 51.05,18.87 50.07,18.87C49.61,18.87 49.14,18.83 48.68,18.74C48.22,18.65 47.75,18.52 47.28,18.35L47.28,16.76C47.75,17.01 48.2,17.2 48.63,17.32C49.07,17.44 49.49,17.51 49.89,17.51C50.3,17.51 50.61,17.44 50.83,17.3C51.05,17.16 51.16,16.97 51.16,16.71C51.16,16.48 51.08,16.31 50.93,16.18C50.78,16.06 50.49,15.95 50.05,15.85L49.32,15.69C48.59,15.53 48.06,15.28 47.72,14.94C47.38,14.6 47.22,14.14 47.22,13.56C47.22,12.83 47.45,12.28 47.92,11.88C48.39,11.48 49.06,11.29 49.94,11.29C50.34,11.29 50.75,11.32 51.18,11.38C51.6,11.44 52.04,11.53 52.49,11.65L52.5,11.66ZM59.81,11.66L59.81,13.2C59.41,13.02 59.02,12.89 58.64,12.79C58.26,12.69 57.9,12.65 57.56,12.65C57.11,12.65 56.78,12.71 56.56,12.84C56.34,12.97 56.24,13.16 56.24,13.42C56.24,13.62 56.31,13.77 56.46,13.88C56.61,13.99 56.87,14.08 57.25,14.16L58.05,14.32C58.86,14.48 59.44,14.73 59.78,15.06C60.12,15.39 60.29,15.86 60.29,16.48C60.29,17.28 60.05,17.88 59.57,18.28C59.09,18.67 58.37,18.87 57.39,18.87C56.93,18.87 56.46,18.83 56,18.74C55.54,18.65 55.07,18.52 54.6,18.35L54.6,16.76C55.07,17.01 55.52,17.2 55.95,17.32C56.39,17.44 56.81,17.51 57.21,17.51C57.62,17.51 57.93,17.44 58.15,17.3C58.37,17.16 58.48,16.97 58.48,16.71C58.48,16.48 58.4,16.31 58.25,16.18C58.1,16.06 57.81,15.95 57.37,15.85L56.64,15.69C55.91,15.53 55.38,15.28 55.04,14.94C54.7,14.6 54.54,14.14 54.54,13.56C54.54,12.83 54.77,12.28 55.24,11.88C55.71,11.48 56.38,11.29 57.26,11.29C57.66,11.29 58.07,11.32 58.5,11.38C58.93,11.44 59.36,11.53 59.82,11.65L59.81,11.66Z"/>
        </g>
        <g transform="matrix(1,0,0,1,0,0.445)">
            <path d="M33.08,7.04L33.41,9.07L32.22,11.34C32.22,11.34 31.76,10.38 31.01,9.85C30.37,9.4 29.96,9.3 29.31,9.44C28.48,9.61 27.53,10.61 27.12,11.84C26.63,13.31 26.62,14.02 26.6,14.67C26.57,15.72 26.74,16.33 26.74,16.34C26.74,16.35 26.02,15.01 26.03,13.06C26.04,11.67 26.25,10.41 26.9,9.16C27.47,8.06 28.31,7.41 29.05,7.33C29.82,7.25 30.43,7.62 30.9,8.03C31.4,8.45 31.9,9.38 31.9,9.38L33.07,7.05L33.08,7.04ZM33.22,18.55C33.22,18.55 32.7,19.49 32.37,19.85C32.04,20.21 31.46,20.85 30.74,21.16C30.02,21.48 29.64,21.54 28.93,21.47C28.22,21.4 27.56,20.99 27.32,20.82C27.09,20.65 26.5,20.14 26.16,19.67C25.82,19.2 25.3,18.25 25.3,18.25C25.3,18.25 25.59,19.2 25.77,19.6C25.88,19.83 26.2,20.54 26.66,21.15C27.09,21.72 27.92,22.71 29.18,22.94C30.44,23.17 31.31,22.6 31.52,22.46C31.73,22.32 32.19,21.94 32.47,21.64C32.77,21.32 33.05,20.91 33.21,20.67C33.32,20.49 33.51,20.13 33.51,20.13L33.21,18.56L33.22,18.55Z" style="fill-rule:nonzero;"/>
        </g>
        <g transform="matrix(1,0,0,1,0,0.445)">
            <path d="M11.44,7.13L14.29,16.83L17.14,7.13L19.21,7.13L14.49,23.06L14.29,23.06L11.34,13.18L8.39,23.06L8.19,23.06L3.47,7.13L5.54,7.13L8.39,16.83L10.32,10.3L9.38,7.13L11.45,7.13L11.44,7.13Z" style="fill:rgb(0,90,156);fill-rule:nonzero;"/>
            <path d="M25.07,17.95C25.07,19.39 24.69,20.61 23.92,21.59C23.15,22.57 22.16,23.07 20.94,23.07C20.02,23.07 19.22,22.78 18.54,22.19C17.86,21.6 17.35,20.82 17.02,19.82L18.63,19.15C18.87,19.75 19.18,20.23 19.57,20.58C19.96,20.93 20.41,21.1 20.94,21.1C21.49,21.1 21.96,20.79 22.34,20.18C22.72,19.57 22.91,18.82 22.91,17.96C22.91,17 22.71,16.26 22.3,15.74C21.83,15.12 21.09,14.81 20.08,14.81L19.29,14.81L19.29,13.87L22.04,9.11L18.71,9.11L17.78,10.68L17.19,10.68L17.19,7.14L24.86,7.14L24.86,8.1L21.95,13.12C22.97,13.45 23.75,14.05 24.27,14.91C24.79,15.78 25.06,16.79 25.06,17.96L25.07,17.95Z" style="fill:rgb(0,90,156);fill-rule:nonzero;"/>
        </g>
        <g transform="matrix(1.01555,0,0,1.49012,-1.29051,-14.5876)">
            <rect x="82.015" y="29.92" width="0.985" height="0.673" style="fill:rgb(51,51,51);"/>
        </g>
        <g transform="matrix(1.01555,0,0,1.49012,-2.29051,-15.5902)">
            <rect x="82.015" y="29.92" width="0.985" height="0.673" style="fill:rgb(107,107,108);"/>
        </g>
        <g transform="matrix(1.01555,0,0,1.49012,-1.29051,-44.585)">
            <rect x="82.015" y="29.92" width="0.985" height="0.673" style="fill:rgb(163,165,166);"/>
        </g>
        <g transform="matrix(1.01555,0,0,1.49012,-3.29051,-15.5902)">
            <rect x="82.015" y="29.92" width="0.985" height="0.673" style="fill:rgb(137,142,150);"/>
        </g>
    </g>
</svg>
